<?xml version="1.0" encoding="UTF-8"?>
<svg version="1.1" xmlns="http://www.w3.org/2000/svg" width="1024" height="1024">
<path d="M0 0 C0.97829269 -0.00960754 1.95658539 -0.01921509 2.96452332 -0.02911377 C4.02593033 -0.03336365 5.08733734 -0.03761353 6.1809082 -0.04199219 C7.27127884 -0.04769226 8.36164948 -0.05339233 9.48506165 -0.05926514 C11.79764839 -0.06872589 14.11024867 -0.07525337 16.42285156 -0.07910156 C19.94986795 -0.08877987 23.47629498 -0.11978246 27.00317383 -0.15136719 C29.24991516 -0.1578999 31.49666066 -0.16314932 33.7434082 -0.16699219 C34.79469406 -0.17933899 35.84597992 -0.19168579 36.92912292 -0.20440674 C43.67794822 -0.18403169 48.48377434 0.43125219 54.08666992 4.4453125 C55.88566237 7.00158401 56.66305267 9.63971412 57.61450195 12.61425781 C57.83067169 13.28256119 58.04684143 13.95086456 58.26956177 14.63941956 C58.99551323 16.89375965 59.70748911 19.15225654 60.41918945 21.41113281 C60.93008037 23.00984485 61.44148798 24.60839185 61.95336914 26.20678711 C69.58645337 50.13234048 76.92326706 74.15384498 84.29418945 98.16113281 C85.10433502 98.15555862 85.91448059 98.14998444 86.74917603 98.14424133 C87.81928925 98.13990585 88.88940247 98.13557037 89.99194336 98.13110352 C91.04958893 98.12552933 92.1072345 98.11995514 93.19692993 98.11421204 C97.42562889 98.17827313 101.50203416 98.65954397 105.66918945 99.34863281 C106.48299072 99.48317871 107.29679199 99.61772461 108.13525391 99.75634766 C132.56736327 104.08499391 153.9917986 118.26413176 168.5324707 138.23535156 C185.76808798 163.15702451 188.94094548 192.74141961 184.29418945 222.16113281 C178.24856915 254.63709657 165.11129388 285.39528684 147.29418945 313.16113281 C146.83866699 313.87205078 146.38314453 314.58296875 145.91381836 315.31542969 C138.44374777 326.88557622 130.43137907 338.0543053 122.29418945 349.16113281 C120.7097322 351.32698366 119.12660514 353.49378847 117.54418945 355.66113281 C116.62379883 356.91410156 116.62379883 356.91410156 115.68481445 358.19238281 C114.25883478 360.10621718 114.25883478 360.10621718 113.29418945 362.16113281 C112.63418945 362.16113281 111.97418945 362.16113281 111.29418945 362.16113281 C111.05958008 362.69351562 110.8249707 363.22589844 110.58325195 363.77441406 C107.57615271 369.34210387 103.22570811 374.21844225 99.29418945 379.16113281 C98.54782227 380.11375 97.80145508 381.06636719 97.0324707 382.04785156 C96.35571289 382.86898438 95.67895508 383.69011719 94.98168945 384.53613281 C94.38743164 385.26574219 93.79317383 385.99535156 93.1809082 386.74707031 C91.29418945 388.16113281 91.29418945 388.16113281 89.0871582 388.16894531 C85.12518675 386.73931086 81.58947679 384.71246731 77.91918945 382.66113281 C26.95681858 355.11659285 -36.70928502 348.41256861 -92.4597168 364.22680664 C-96.56982086 365.45654141 -100.63859839 366.79733714 -104.70581055 368.16113281 C-105.46748535 368.40669922 -106.22916016 368.65226562 -107.01391602 368.90527344 C-118.79827209 372.72831727 -129.52407686 377.9442232 -140.34326172 383.98168945 C-141.35751221 384.53590576 -142.3717627 385.09012207 -143.41674805 385.66113281 C-144.31699707 386.16644531 -145.21724609 386.67175781 -146.14477539 387.19238281 C-149.20131119 388.34856337 -150.64547745 388.23941133 -153.70581055 387.16113281 C-155.79062421 385.12055141 -157.57328599 383.16574561 -159.39331055 380.91113281 C-159.91876465 380.27852539 -160.44421875 379.64591797 -160.9855957 378.99414062 C-165.11919856 373.98181904 -169.11143714 368.86146659 -173.02612305 363.67675781 C-174.96394694 361.11548566 -176.94435708 358.59311495 -178.94799805 356.08300781 C-210.56754617 316.34010708 -238.55274582 269.12035672 -246.19799805 218.23144531 C-246.53466668 215.25736305 -246.53466668 215.25736305 -247.70581055 213.16113281 C-249.07383986 181.09198049 -242.78038678 152.80011582 -221.39331055 128.03613281 C-203.90208589 109.19036887 -180.7540645 100.13806218 -155.5690918 97.87988281 C-144.85764488 97.52134066 -132.63862485 99.07428614 -122.70581055 103.16113281 C-118.53799739 103.63185857 -118.53799739 103.63185857 -115.98706055 100.45019531 C-110.729021 94.13367003 -110.729021 94.13367003 -108.66674805 86.49707031 C-109.72979608 83.78039201 -111.08847985 81.59248426 -112.70581055 79.16113281 C-113.39947944 77.93631559 -114.08240281 76.70537335 -114.7565918 75.46972656 C-117.75176771 69.45913095 -117.75176771 69.45913095 -121.70581055 64.16113281 C-122.51018555 64.37769531 -122.51018555 64.37769531 -123.33081055 64.59863281 C-127.85612359 65.67041748 -131.38854562 65.84489022 -135.57299805 63.67285156 C-139.61777151 60.8240725 -141.90811507 56.81789911 -144.45581055 52.66113281 C-144.93663086 51.901875 -145.41745117 51.14261719 -145.9128418 50.36035156 C-149.49654255 44.6603707 -152.34863267 40.06657175 -152.70581055 33.16113281 C-151.0354983 28.42858144 -148.8592903 25.91699616 -144.70581055 23.16113281 C-141.67797852 22.71777344 -141.67797852 22.71777344 -138.32299805 22.81738281 C-136.47013184 22.87152344 -136.47013184 22.87152344 -134.57983398 22.92675781 C-128.3043565 23.30641866 -122.07473207 23.9346388 -115.83081055 24.66113281 C-106.38352719 25.82656426 -106.38352719 25.82656426 -96.88549805 26.19238281 C-95.83620117 26.18207031 -94.7869043 26.17175781 -93.70581055 26.16113281 C-93.37581055 26.49113281 -93.04581055 26.82113281 -92.70581055 27.16113281 C-91.14412413 27.34018324 -89.57564444 27.46080986 -88.0065918 27.55566406 C-87.04430664 27.62462891 -86.08202148 27.69359375 -85.09057617 27.76464844 C-83.06260748 27.90259672 -81.0339209 28.03041225 -79.00463867 28.14746094 C-73.0650641 28.59401578 -69.22371221 29.1622781 -64.70581055 33.16113281 C-62.64086704 36.75813118 -61.68523541 39.13237618 -61.76831055 43.28613281 C-63.07736846 47.30057708 -64.52009064 50.04320726 -68.40893555 52.03222656 C-75.84606263 54.77147375 -83.92240631 55.81455613 -91.70581055 57.16113281 C-90.09229813 62.46379256 -87.71011275 66.89531824 -84.94799805 71.67285156 C-83.70581055 74.16113281 -83.70581055 74.16113281 -83.70581055 77.16113281 C-83.07980957 77.01192383 -82.45380859 76.86271484 -81.80883789 76.70898438 C-64.79264482 72.66737579 -47.73668355 68.82769813 -30.65759277 65.0612793 C-7.93235792 60.04876614 14.71919299 54.81247782 37.29418945 49.16113281 C37.02864258 48.17113281 36.7630957 47.18113281 36.48950195 46.16113281 C36.13269689 44.82780864 35.77592801 43.49447478 35.41918945 42.16113281 C35.24516602 41.51273437 35.07114258 40.86433594 34.8918457 40.19628906 C33.64424726 35.52934673 32.45598606 30.85018579 31.29418945 26.16113281 C30.23506348 26.18208008 29.1759375 26.20302734 28.0847168 26.22460938 C24.13758988 26.29726666 20.19052153 26.34302536 16.24291992 26.38085938 C14.53774052 26.4009165 12.8326294 26.42816939 11.12768555 26.46289062 C8.66999421 26.51167142 6.21321579 26.53416 3.75512695 26.55175781 C2.62039444 26.58272552 2.62039444 26.58272552 1.46273804 26.61431885 C-3.72240348 26.61649373 -6.55596977 25.52146109 -10.70581055 22.16113281 C-13.68417027 19.08007103 -14.53799271 16.44048771 -14.70581055 12.16113281 C-13.09345276 6.96575773 -11.22832266 4.17614089 -6.70581055 1.16113281 C-4.28110947 -0.05121773 -2.70952619 0.02144531 0 0 Z M13.74487305 82.35107422 C12.62785004 82.6119986 11.51082703 82.87292297 10.35995483 83.14175415 C9.14973663 83.42916473 7.93951843 83.71657532 6.69262695 84.01269531 C4.75814158 84.46633756 2.82365619 84.91997972 0.88916969 85.37361717 C-1.83409263 86.01345115 -4.55636908 86.6574293 -7.27868652 87.30126953 C-11.27377085 88.24520356 -15.27023403 89.18327624 -19.26653671 90.12203598 C-22.54863985 90.89315261 -25.83046225 91.66541667 -29.1116333 92.44049072 C-35.51046974 93.95065211 -41.91301718 95.44120969 -48.32592773 96.890625 C-49.52285248 97.162164 -50.71977722 97.433703 -51.95297241 97.71347046 C-54.20297105 98.22248108 -56.45392348 98.72730034 -58.70596313 99.22720337 C-60.20321426 99.56647354 -60.20321426 99.56647354 -61.73071289 99.91259766 C-62.59932953 100.10655121 -63.46794617 100.30050476 -64.36288452 100.50033569 C-66.66700853 101.15018912 -68.60907862 102.01663775 -70.70581055 103.16113281 C-64.58139408 116.41523612 -58.03291879 129.40145554 -51.2121582 142.31005859 C-49.7101311 145.15295528 -48.21306744 147.99841165 -46.7175293 150.84472656 C-44.38383405 155.2854037 -42.04608969 159.72392214 -39.70581055 164.16113281 C-35.37674554 160.05863569 -31.77136447 155.57449103 -28.14331055 150.84863281 C-27.53197266 150.05755127 -26.92063477 149.26646973 -26.29077148 148.45141602 C-21.79811294 142.62270922 -17.36659745 136.74923029 -12.96533203 130.85131836 C-9.91258744 126.76111958 -6.82784528 122.69865611 -3.70581055 118.66113281 C0.51854851 113.19112942 4.67444138 107.67301588 8.80688477 102.13330078 C11.26787807 98.83998323 13.74669724 95.56444683 16.27856445 92.32519531 C16.74520508 91.72707031 17.2118457 91.12894531 17.69262695 90.51269531 C18.57383404 89.38699146 19.45907019 88.26442649 20.34887695 87.14550781 C22.62926646 84.4739726 22.62926646 84.4739726 23.29418945 81.16113281 C19.7483577 81.16113281 17.15781609 81.54679123 13.74487305 82.35107422 Z M50.29418945 90.16113281 C49.96418945 91.48113281 49.63418945 92.80113281 49.29418945 94.16113281 C48.63418945 94.16113281 47.97418945 94.16113281 47.29418945 94.16113281 C45.24323048 96.52828035 45.24323048 96.52828035 43.16918945 99.47363281 C42.44473633 100.45976562 41.7202832 101.44589844 40.97387695 102.46191406 C39.03001883 105.05578694 39.03001883 105.05578694 39.29418945 108.16113281 C38.69598389 108.4137085 38.09777832 108.66628418 37.48144531 108.92651367 C35.0091277 110.32203886 33.93828055 111.6141824 32.2980957 113.91503906 C31.74653809 114.67800293 31.19498047 115.4409668 30.62670898 116.22705078 C30.04260254 117.05092285 29.45849609 117.87479492 28.85668945 118.72363281 C27.5962859 120.46807342 26.33454025 122.21154501 25.0715332 123.95410156 C24.43715332 124.83243652 23.80277344 125.71077148 23.14916992 126.61572266 C20.46364196 130.30081274 17.70031812 133.92292734 14.91918945 137.53613281 C14.13874268 138.55259888 14.13874268 138.55259888 13.3425293 139.58959961 C12.25111845 141.01087594 11.15931109 142.43184787 10.06713867 143.85253906 C-2.05007813 159.60820421 -2.05007813 159.60820421 -13.8425293 175.60644531 C-16.15598928 178.77835899 -18.51377202 181.91359016 -20.89331055 185.03613281 C-21.69124023 186.08542969 -22.48916992 187.13472656 -23.3112793 188.21582031 C-29.95312209 196.3853953 -29.95312209 196.3853953 -34.70581055 197.16113281 C-37.39412433 197.31165691 -40.0624381 197.41718398 -42.75268555 197.47753906 C-43.52388733 197.49832016 -44.29508911 197.51910126 -45.08966064 197.54051208 C-47.54495626 197.60571853 -50.00035576 197.66475765 -52.45581055 197.72363281 C-54.12378989 197.76684555 -55.79175886 197.81046072 -57.4597168 197.85449219 C-61.54164251 197.96137017 -65.62367236 198.06271847 -69.70581055 198.16113281 C-69.89626953 199.23782227 -70.08672852 200.31451172 -70.28295898 201.42382812 C-70.54344203 202.86235164 -70.80419883 204.30082559 -71.06518555 205.73925781 C-71.25153564 206.79910889 -71.25153564 206.79910889 -71.44165039 207.88037109 C-75.50896998 230.10993539 -89.43187254 249.21549895 -107.8215332 261.93408203 C-122.70294587 271.624932 -139.40140767 276.10302713 -156.70581055 279.16113281 C-153.33138961 285.63801985 -153.33138961 285.63801985 -148.70581055 291.16113281 C-133.38673548 293.71431199 -112.47765164 282.66716473 -100.10424805 274.20776367 C-93.43954905 269.44204007 -87.47485758 263.96299348 -81.70581055 258.16113281 C-80.95686523 257.4121875 -80.20791992 256.66324219 -79.4362793 255.89160156 C-69.87883054 245.73092133 -63.90860813 233.56672797 -57.70581055 221.16113281 C-30.97581055 220.66613281 -30.97581055 220.66613281 -3.70581055 220.16113281 C-2.71581055 223.13113281 -1.72581055 226.10113281 -0.70581055 229.16113281 C0.60930466 231.71213942 1.91761452 234.10750998 3.41918945 236.53613281 C3.8080835 237.17534668 4.19697754 237.81456055 4.59765625 238.47314453 C8.33587207 244.47860589 12.67362653 249.80728743 17.29418945 255.16113281 C18.30932617 256.45083984 18.30932617 256.45083984 19.3449707 257.76660156 C32.56829794 274.01088933 55.20859957 285.52805675 75.29418945 290.16113281 C76.28161133 290.41507813 77.2690332 290.66902344 78.28637695 290.93066406 C81.236649 291.48633861 83.35054661 291.7657983 86.29418945 291.16113281 C90.22534015 287.86426353 92.6799449 284.00386646 94.29418945 279.16113281 C93.59970703 279.00555908 92.90522461 278.84998535 92.18969727 278.68969727 C65.41469332 272.63577379 39.34305033 263.48501339 23.15991211 239.47851562 C20.652663 235.48255246 18.44730512 231.35682472 16.29418945 227.16113281 C15.79918945 226.21109375 15.30418945 225.26105469 14.79418945 224.28222656 C5.12367653 204.50948139 4.93785385 180.69018461 11.58325195 159.94628906 C15.99650536 147.13694229 24.46201126 127.57722191 37.29418945 121.16113281 C37.29418945 120.50113281 37.29418945 119.84113281 37.29418945 119.16113281 C38.14883789 118.75507813 38.14883789 118.75507813 39.02075195 118.34082031 C41.36007971 117.12694234 43.48757209 115.76350878 45.66918945 114.28613281 C46.83901367 113.49722656 46.83901367 113.49722656 48.0324707 112.69238281 C48.77883789 112.18707031 49.52520508 111.68175781 50.29418945 111.16113281 C51.48094523 110.36835095 52.66832164 109.57649621 53.85668945 108.78613281 C55.06325195 107.98175781 55.06325195 107.98175781 56.29418945 107.16113281 C56.00936578 105.74307451 55.71600801 104.32672902 55.41918945 102.91113281 C55.25676758 102.12222656 55.0943457 101.33332031 54.92700195 100.52050781 C54.29933793 98.18032835 53.44605412 96.28488329 52.29418945 94.16113281 C51.62752279 92.82779948 50.96085612 91.49446615 50.29418945 90.16113281 Z M-94.70581055 119.16113281 C-96.51694481 121.61800256 -98.27740045 124.09248155 -100.01831055 126.59863281 C-101.11330005 128.16247872 -102.20835396 129.72627952 -103.3034668 131.29003906 C-103.86694824 132.09715332 -104.43042969 132.90426758 -105.01098633 133.73583984 C-107.648536 137.51017267 -110.30102651 141.27390996 -112.95581055 145.03613281 C-113.45371094 145.74205566 -113.95161133 146.44797852 -114.46459961 147.17529297 C-119.45326495 154.23787923 -124.50483487 161.25284597 -129.70581055 168.16113281 C-129.37581055 168.82113281 -129.04581055 169.48113281 -128.70581055 170.16113281 C-108.90581055 169.83113281 -89.10581055 169.50113281 -68.70581055 169.16113281 C-70.03964223 165.15963777 -71.03194888 162.28045393 -73.02612305 158.76269531 C-73.47528076 157.9612207 -73.92443848 157.15974609 -74.38720703 156.33398438 C-74.86359619 155.49319336 -75.33998535 154.65240234 -75.83081055 153.78613281 C-80.72261565 145.03059807 -85.29241793 136.16484694 -89.70581055 127.16113281 C-91.03494281 124.49234282 -92.37011677 121.82664918 -93.70581055 119.16113281 C-94.03581055 119.16113281 -94.36581055 119.16113281 -94.70581055 119.16113281 Z M-195.18237305 142.25878906 C-207.58936905 154.02261303 -213.47184652 169.75464402 -213.95581055 186.72363281 C-213.48124101 203.1852637 -207.16305231 218.70470678 -195.1862793 230.05957031 C-182.79318829 240.55954348 -168.01116197 245.77444424 -151.76831055 245.03613281 C-135.71286989 243.49778112 -121.25814794 236.9821294 -110.70581055 224.66113281 C-104.66478369 216.89244185 -100.09601534 208.11135496 -99.70581055 198.16113281 C-108.5192145 197.45264724 -117.26280368 197.07776411 -126.10424805 197.13378906 C-127.44595062 197.14205215 -127.44595062 197.14205215 -128.8147583 197.15048218 C-132.50527574 197.17799389 -136.1956281 197.21307842 -139.88598633 197.25708008 C-142.62541309 197.28749686 -145.3647053 197.3050985 -148.10424805 197.32128906 C-149.32958755 197.3414785 -149.32958755 197.3414785 -150.5796814 197.36207581 C-156.25014677 197.3863748 -162.39212193 197.29801756 -167.70581055 195.16113281 C-168.92611694 193.20863342 -168.92611694 193.20863342 -169.70581055 191.16113281 C-170.03581055 190.50113281 -170.36581055 189.84113281 -170.70581055 189.16113281 C-171.57985337 179.02223611 -166.50495213 172.5238655 -160.64331055 164.66113281 C-159.48171965 163.07754874 -158.32159067 161.4928914 -157.1628418 159.90722656 C-156.58356934 159.11558105 -156.00429688 158.32393555 -155.4074707 157.50830078 C-148.48914086 147.9655715 -141.92186147 138.1747029 -135.70581055 128.16113281 C-158.02138637 124.80346515 -177.26998173 127.08693711 -195.18237305 142.25878906 Z M93.29418945 127.16113281 C94.64036191 133.7831289 96.48694697 140.01691795 98.7355957 146.38378906 C99.40826593 148.32319218 100.08078751 150.26264687 100.75317383 152.20214844 C101.80603471 155.2201202 102.86143998 158.2371688 103.91992188 161.25317383 C104.94859675 164.19023277 105.96755775 167.13052931 106.9855957 170.07128906 C107.302267 170.96421158 107.61893829 171.85713409 107.94520569 172.77711487 C110.18679846 179.27236651 112.17389546 185.1799069 110.16918945 191.97363281 C108.04277142 195.58854346 107.23429332 196.76567936 103.29418945 198.16113281 C98.45003758 198.67910688 93.99490224 198.74009887 89.35668945 197.16113281 C83.53889034 191.51963064 81.4631356 182.26912288 78.96606445 174.78613281 C78.57219543 173.62106201 78.17832642 172.45599121 77.77252197 171.25561523 C76.52429946 167.55926398 75.28413384 163.86026815 74.04418945 160.16113281 C73.19641608 157.6438046 72.34681092 155.12709937 71.49731445 152.61035156 C69.42350986 146.46265147 67.35630127 140.31276419 65.29418945 134.16113281 C64.01285516 135.11402792 62.73263315 136.06841879 61.45288086 137.0234375 C60.73983795 137.55475281 60.02679504 138.08606812 59.29214478 138.63348389 C47.09915068 147.95632216 39.26181266 161.29840085 36.60668945 176.39941406 C34.63310596 193.84095818 38.0881167 209.02639099 48.50512695 223.16113281 C58.42554376 234.57831426 71.18667527 243.00316668 86.61279297 244.3659668 C104.9809688 245.09549617 120.26990522 242.1752928 134.66918945 229.84863281 C146.2680707 218.75814409 152.17487177 205.33442086 153.25512695 189.43066406 C153.45778666 172.46804692 147.16549125 156.07421585 135.35668945 143.84863281 C126.74263073 135.76263899 105.96700662 120.82472423 93.29418945 127.16113281 Z " fill="#0052BB" transform="translate(543.705810546875,221.8388671875)"/>
<path d="M0 0 C-0.87127688 4.30084482 -3.15112892 7.03949647 -5.875 10.375 C-6.88687068 11.63789911 -7.8985853 12.90092328 -8.91015625 14.1640625 C-9.42723145 14.80504883 -9.94430664 15.44603516 -10.47705078 16.10644531 C-12.77934819 18.96900041 -15.04626464 21.85887123 -17.3125 24.75 C-17.98249023 25.60283569 -17.98249023 25.60283569 -18.66601562 26.47290039 C-27.07447851 37.17953888 -35.43238385 47.92462764 -43.6875 58.75 C-47.56950389 63.84037133 -51.47514231 68.90938967 -55.4375 73.9375 C-55.87022217 74.48688232 -56.30294434 75.03626465 -56.7487793 75.60229492 C-57.65917351 76.75798013 -58.56957412 77.91366029 -59.47998047 79.06933594 C-62.49256352 82.89579061 -65.4994324 86.72661521 -68.5 90.5625 C-69.09997803 91.3248999 -69.69995605 92.0872998 -70.31811523 92.87280273 C-72.65536028 95.86555558 -74.85277172 98.7497765 -76.78125 102.02734375 C-77.1834375 102.67832031 -77.585625 103.32929687 -78 104 C-78.66 104 -79.32 104 -80 104 C-80.37125 104.82177734 -80.37125 104.82177734 -80.75 105.66015625 C-83.18460888 110.21743975 -86.56436862 114.19253927 -89.69726562 118.28857422 C-91.02250954 120.02957118 -92.33254947 121.7812337 -93.640625 123.53515625 C-94.5101062 124.69033791 -95.37989018 125.84529176 -96.25 127 C-97.03890625 128.051875 -97.8278125 129.10375 -98.640625 130.1875 C-101.68999675 133.82251268 -104.38032327 136.4830819 -108.9375 137.9375 C-112.88109632 138.01798156 -114.62756564 137.05097368 -118 135 C-120.09502292 132.93245279 -121.85063816 130.65688122 -123.625 128.3125 C-124.14006104 127.65040527 -124.65512207 126.98831055 -125.18579102 126.30615234 C-126.80509703 124.21480497 -128.40528703 122.11014611 -130 120 C-130.74757568 119.01314209 -130.74757568 119.01314209 -131.51025391 118.00634766 C-133.99529042 114.71841531 -136.46474153 111.41920327 -138.92578125 108.11328125 C-142.12543386 103.82066271 -145.36996511 99.56321506 -148.625 95.3125 C-149.17494629 94.59433105 -149.72489258 93.87616211 -150.29150391 93.13623047 C-153.45934454 89.00298875 -156.63455403 84.87547425 -159.8125 80.75 C-163.45492929 76.02133572 -167.07477067 71.27604869 -170.6875 66.5246582 C-181.03320704 52.9202004 -191.50758824 39.4207265 -202.08349609 25.99462891 C-206.03293312 20.97435756 -209.92611507 15.91201112 -213.80859375 10.83984375 C-215.84377933 8.20244639 -217.9102786 5.59430106 -220 3 C-216.94087217 -4.99544774 -204.97029117 -8.63703856 -197.5625 -12 C-188.23475398 -16.14443213 -178.59842121 -19.31435166 -168.86914062 -22.37084961 C-166.94079025 -22.9718906 -166.94079025 -22.9718906 -165 -24 C-161.03063147 -24.83326439 -157.0093074 -25.39300951 -153 -26 C-152.20916016 -26.12165527 -151.41832031 -26.24331055 -150.60351562 -26.36865234 C-96.79940349 -34.54078636 -47.69570738 -26.06439552 0 0 Z " fill="#00AFF5" transform="translate(623,624)"/>
<path d="M0 0 C-0.87127688 4.30084482 -3.15112892 7.03949647 -5.875 10.375 C-6.88687068 11.63789911 -7.8985853 12.90092328 -8.91015625 14.1640625 C-9.42723145 14.80504883 -9.94430664 15.44603516 -10.47705078 16.10644531 C-12.77934819 18.96900041 -15.04626464 21.85887123 -17.3125 24.75 C-17.98249023 25.60283569 -17.98249023 25.60283569 -18.66601562 26.47290039 C-27.07448039 37.17954127 -35.43226495 47.92471567 -43.6875 58.75 C-47.7593261 64.08817759 -51.85457519 69.40621602 -56 74.6875 C-56.43272217 75.23954102 -56.86544434 75.79158203 -57.3112793 76.36035156 C-60.14645183 79.96060578 -63.05374532 83.49080023 -66 87 C-66 82.90559767 -64.41310626 81.63257589 -61.875 78.4375 C-60.9518106 77.26433261 -60.02863425 76.09115495 -59.10546875 74.91796875 C-58.60450684 74.28681152 -58.10354492 73.6556543 -57.58740234 73.00537109 C-54.76399279 69.43854765 -51.97871992 65.8420273 -49.1875 62.25 C-48.59525635 61.48969482 -48.0030127 60.72938965 -47.39282227 59.94604492 C-42.79337031 54.03779066 -38.2410639 48.09474031 -33.70410156 42.13842773 C-29.72720214 36.92624216 -25.69342181 31.76155502 -21.60083008 26.63964844 C-19.53282412 24.0339209 -17.59683558 21.41196386 -15.81640625 18.60546875 C-15.21699219 17.74566406 -14.61757813 16.88585937 -14 16 C-13.34 16 -12.68 16 -12 16 C-11.73316406 15.42378906 -11.46632813 14.84757813 -11.19140625 14.25390625 C-9.57275071 11.19172839 -7.47323706 8.61994256 -5.33984375 5.90234375 C-3.81914723 3.9370042 -3.81914723 3.9370042 -3 1 C-13.16944361 -5.07308693 -24.0617552 -9.52119383 -35 -14 C-36.81177734 -14.74830078 -36.81177734 -14.74830078 -38.66015625 -15.51171875 C-69.31269968 -27.31834848 -105.40467634 -29.82997037 -137.75488281 -25.30322266 C-140.04977873 -24.99327695 -142.34674248 -24.7345644 -144.6484375 -24.48046875 C-167.79237753 -21.72098088 -192.9712267 -14.27368165 -212.26904297 -0.84448242 C-214 0 -214 0 -217 -1 C-202.1899294 -10.7746466 -186.0464404 -16.81743001 -169.2578125 -22.23828125 C-167.00208961 -22.94152682 -167.00208961 -22.94152682 -165 -24 C-161.03063147 -24.83326439 -157.0093074 -25.39300951 -153 -26 C-152.20916016 -26.12165527 -151.41832031 -26.24331055 -150.60351562 -26.36865234 C-96.79940349 -34.54078636 -47.69570738 -26.06439552 0 0 Z " fill="#0A8DD6" transform="translate(623,624)"/>
<path d="M0 0 C2.92332641 3.6307981 5.78695172 7.30221722 8.625 11 C9.06102539 11.56759033 9.49705078 12.13518066 9.94628906 12.7199707 C12.09287328 15.51431101 14.23780102 18.309921 16.3828125 21.10546875 C21.23337459 27.42080454 26.10792327 33.71675537 31 40 C36.69372134 47.31285424 42.35732018 54.64770031 48 62 C49.66609253 64.16710847 51.33305199 66.33354953 53 68.5 C53.83334905 69.58332124 54.66668241 70.66665456 55.5 71.75 C55.9125 72.28625 56.325 72.8225 56.75 73.375 C61.33333333 79.33333333 65.91666667 85.29166667 70.5 91.25 C70.9122583 91.78584717 71.3245166 92.32169434 71.74926758 92.8737793 C72.58538824 93.96091568 73.42116116 95.04831959 74.2565918 96.13598633 C76.29460591 98.78845714 78.33901224 101.43524084 80.39453125 104.07421875 C81.19246094 105.10160156 81.99039063 106.12898437 82.8125 107.1875 C83.21364014 107.7036084 83.61478027 108.2197168 84.02807617 108.75146484 C86.54497222 112.02004639 88.96667026 115.34303717 91.34375 118.71484375 C91.91891357 119.52735596 92.49407715 120.33986816 93.08666992 121.17700195 C94.21512282 122.77765228 95.33544987 124.38407038 96.4465332 125.99682617 C99.21699013 129.92396929 101.44280695 133.05883291 106 135 C109.56641763 135.35664176 110.86438282 135.43358818 114 134 C116.94811954 131.29514376 119.24515209 128.17834823 121.58789062 124.94482422 C123.1973231 122.72823723 124.83876819 120.53751784 126.484375 118.34765625 C128.40919918 115.78611356 130.33226998 113.22346451 132.24658203 110.65405273 C137.98778632 102.95730059 143.94044357 95.44749952 150 88 C150 92.00661691 148.46079042 93.39709384 146.0625 96.5625 C143.29557496 100.13490019 143.29557496 100.13490019 141 104 C140.34 104 139.68 104 139 104 C138.62875 104.82177734 138.62875 104.82177734 138.25 105.66015625 C135.81539112 110.21743975 132.43563138 114.19253927 129.30273438 118.28857422 C127.97749046 120.02957118 126.66745053 121.7812337 125.359375 123.53515625 C124.4898938 124.69033791 123.62010982 125.84529176 122.75 127 C121.96109375 128.051875 121.1721875 129.10375 120.359375 130.1875 C117.31000325 133.82251268 114.61967673 136.4830819 110.0625 137.9375 C106.11890368 138.01798156 104.37243436 137.05097368 101 135 C98.90497708 132.93245279 97.14936184 130.65688122 95.375 128.3125 C94.85993896 127.65040527 94.34487793 126.98831055 93.81420898 126.30615234 C92.19490297 124.21480497 90.59471297 122.11014611 89 120 C88.50161621 119.34209473 88.00323242 118.68418945 87.48974609 118.00634766 C85.00470958 114.71841531 82.53525847 111.41920327 80.07421875 108.11328125 C76.87456614 103.82066271 73.63003489 99.56321506 70.375 95.3125 C69.82505371 94.59433105 69.27510742 93.87616211 68.70849609 93.13623047 C65.54065546 89.00298875 62.36544597 84.87547425 59.1875 80.75 C55.54507071 76.02133572 51.92522933 71.27604869 48.3125 66.5246582 C37.96679296 52.9202004 27.49241176 39.4207265 16.91650391 25.99462891 C12.96706688 20.97435756 9.07388493 15.91201112 5.19140625 10.83984375 C3.73553646 8.95318183 2.22142527 7.11001524 0.65234375 5.31640625 C0.10707031 4.55199219 -0.43820312 3.78757812 -1 3 C-0.67 2.01 -0.34 1.02 0 0 Z " fill="#098FD4" transform="translate(404,624)"/>
<path d="M0 0 C2.14428417 2.14428417 2.59033094 3.30264093 3.5234375 6.12890625 C3.96248413 7.41607544 3.96248413 7.41607544 4.41040039 8.72924805 C4.72871826 9.66422119 5.04703613 10.59919434 5.375 11.5625 C8.46818852 20.34493293 12.03605634 28.79243455 16.0625 37.1875 C16.78542236 38.70742554 16.78542236 38.70742554 17.52294922 40.25805664 C20.45049858 46.26056817 23.70587619 51.89772283 27.38452148 57.47192383 C29.05637837 60.08822699 30.54181719 62.75970615 32 65.5 C36.64173758 74.14492925 42.02222512 82.18618953 47.8515625 90.0703125 C49.75898365 92.67134134 51.61608665 95.30230647 53.46459961 97.9453125 C58.17709557 104.65890228 63.21479851 111.02897492 68.43505859 117.35424805 C72.28107708 122.03945041 75.84535557 126.81428313 79 132 C75.34028465 130.50840109 73.505779 128.50918473 71.0625 125.4375 C70.27488281 124.4475 69.48726563 123.4575 68.67578125 122.4375 C67.78256163 121.29267396 66.89071116 120.14677878 66 119 C65.51321777 118.37609375 65.02643555 117.7521875 64.52490234 117.109375 C60.63381612 112.10988894 56.80234812 107.06723329 53 102 C52.45794922 101.27893066 51.91589844 100.55786133 51.35742188 99.81494141 C31.69695164 73.52408997 14.58564885 44.53607072 3 13.75 C2.69666748 12.95118408 2.39333496 12.15236816 2.08081055 11.3293457 C0.66443137 7.43815296 -0.40410623 4.20943987 0 0 Z " fill="#073B96" transform="translate(305,467)"/>
<path d="M0 0 C0.66 0.33 1.32 0.66 2 1 C1.36191406 1.89203125 0.72382813 2.7840625 0.06640625 3.703125 C-0.76854633 4.8851927 -1.60316426 6.06749684 -2.4375 7.25 C-2.85837891 7.83652344 -3.27925781 8.42304688 -3.71289062 9.02734375 C-7.58904775 14.5469915 -8.48146448 18.25949731 -8 25 C-6.7044954 27.46145873 -5.94346838 28.67480936 -3.29193115 29.58872986 C-0.36495391 30.11395434 2.44644367 30.16497114 5.42089844 30.20532227 C7.37246857 30.2352401 7.37246857 30.2352401 9.36346436 30.26576233 C10.7787667 30.28274418 12.19407028 30.29962307 13.609375 30.31640625 C15.06097999 30.33698755 16.51257914 30.35798433 17.96417236 30.37937927 C21.77812972 30.43447851 25.59214007 30.48394115 29.40618896 30.53222656 C33.30078834 30.58253049 37.19531109 30.63817007 41.08984375 30.69335938 C48.72649755 30.80079228 56.36321521 30.90227001 64 31 C63.71812064 32.79323253 63.4241719 34.58457126 63.125 36.375 C62.96257812 37.37273437 62.80015625 38.37046875 62.6328125 39.3984375 C62 42 62 42 60 44 C60.495 39.05 60.495 39.05 61 34 C60.29113647 34.00444122 59.58227295 34.00888245 58.85192871 34.01345825 C52.1438772 34.05367326 45.43585976 34.08405432 38.72771454 34.10362434 C35.2796867 34.11402399 31.83175918 34.12811258 28.38378906 34.15087891 C24.41212194 34.17693647 20.44049425 34.18650437 16.46875 34.1953125 C15.24136108 34.20563507 14.01397217 34.21595764 12.74938965 34.22659302 C-2.38143915 34.22856243 -2.38143915 34.22856243 -7.9375 29.5 C-10.84384698 25.97715517 -11.35643374 23.81332275 -11.2734375 19.20703125 C-10.33957766 11.66944829 -4.65253051 5.64576737 0 0 Z " fill="#0844A4" transform="translate(383,386)"/>
<path d="M0 0 C4.07844708 1.35948236 4.85651825 3.93315171 6.6875 7.5625 C7.03635254 8.23506836 7.38520508 8.90763672 7.74462891 9.60058594 C10.5033619 14.94462462 13.17966635 20.33135969 15.8515625 25.71923828 C18.55851917 31.16343372 21.35591334 36.55716873 24.1875 41.9375 C24.59145996 42.70610352 24.99541992 43.47470703 25.41162109 44.26660156 C28.20258422 49.55173827 31.07860083 54.78591577 34 60 C41.33190793 50.63399451 48.61886219 41.24094365 55.72827148 31.70458984 C58.88142638 27.47816683 62.07948184 23.29057198 65.3125 19.125 C68.94172678 14.44382342 72.35770215 9.67068593 75.625 4.73046875 C76.07875 4.15941406 76.5325 3.58835937 77 3 C77.66 3 78.32 3 79 3 C77.54990614 7.26452334 75.41610759 10.29425921 72.625 13.8125 C71.71510302 14.97053556 70.80629571 16.12942792 69.8984375 17.2890625 C69.18445801 18.19833496 69.18445801 18.19833496 68.45605469 19.12597656 C66.00703971 22.27799517 63.63274825 25.48528598 61.25 28.6875 C56.21799769 35.42949393 51.08061055 42.08487703 45.89550781 48.7097168 C45.06937988 49.76606323 45.06937988 49.76606323 44.2265625 50.84375 C43.4226709 51.86662109 43.4226709 51.86662109 42.60253906 52.91015625 C41.49395473 54.35584209 40.4141489 55.82388579 39.35839844 57.30859375 C38.83536133 58.04207031 38.31232422 58.77554688 37.7734375 59.53125 C37.31114746 60.19705078 36.84885742 60.86285156 36.37255859 61.54882812 C35.91961426 62.02771484 35.46666992 62.50660156 35 63 C34.01 63 33.02 63 32 63 C31.74420166 62.51345947 31.48840332 62.02691895 31.22485352 61.52563477 C30.00431368 59.2044611 28.78341153 56.88347818 27.5625 54.5625 C27.1102002 53.70229248 26.65790039 52.84208496 26.19189453 51.95581055 C24.0077414 47.80439489 21.8197645 43.65522189 19.61328125 39.515625 C15.55114825 31.8906793 11.58269958 24.23284439 7.75537109 16.48706055 C5.58160113 12.10463842 3.28831063 7.8202135 0.8125 3.6015625 C0 2 0 2 0 0 Z " fill="#053B99" transform="translate(471,325)"/>
<path d="M0 0 C0.33 0.66 0.66 1.32 1 2 C-0.07421875 3.99609375 -0.07421875 3.99609375 -1.6875 6.4375 C-10.26489301 20.30859728 -12.88597022 36.25006494 -9.6875 52.17578125 C-6.01535693 67.26077807 1.35824519 79.05847006 14.3125 87.75 C27.30411804 95.60581311 41.1058749 97.08713427 56 98 C56 98.33 56 98.66 56 99 C32.013275 99.83242772 32.013275 99.83242772 22 95 C21.09636719 94.59910156 20.19273437 94.19820313 19.26171875 93.78515625 C3.78824086 86.23444922 -5.50226241 73.8690376 -11.5 58.0625 C-16.1536148 41.11004608 -13.95812097 22.42725149 -5.375 7.25 C-3.70763512 4.52688006 -2.25556968 2.25556968 0 0 Z " fill="#053A98" transform="translate(342,369)"/>
<path d="M0 0 C2.25512074 2.25512074 2.72140856 3.68668244 3.70825195 6.68994141 C4.03231522 7.66500641 4.35637848 8.64007141 4.69026184 9.64468384 C5.03610825 10.7029538 5.38195465 11.76122375 5.73828125 12.8515625 C6.48348829 15.08731815 7.22893884 17.32299264 7.97460938 19.55859375 C9.14341269 23.08582707 10.30891351 26.61409143 11.46948242 30.14404297 C12.5916866 33.54963255 13.72676271 36.95072777 14.86328125 40.3515625 C15.20305496 41.39768707 15.54282867 42.44381165 15.89289856 43.52163696 C18.96722769 53.69448373 18.96722769 53.69448373 26 61 C31.22314376 61.58876017 35.55089139 61.82400294 40.1875 59.1875 C42.92948048 54.36539639 42.86361384 50.42083763 42 45 C40.8555311 41.27455641 39.54793823 37.68167976 38.09375 34.06640625 C37 31 37 31 37 27 C37.66 27 38.32 27 39 27 C40.2146138 30.49117024 41.39158793 33.99395473 42.5625 37.5 C42.90474609 38.48226562 43.24699219 39.46453125 43.59960938 40.4765625 C45.58248213 46.48526783 46.54540828 50.80438127 45 57 C42.52982638 59.99021018 40.21939378 61.85373748 37 64 C34.44140625 64.23046875 34.44140625 64.23046875 31.5625 64.1875 C30.61503906 64.18105469 29.66757812 64.17460937 28.69140625 64.16796875 C22.73822783 63.79643512 22.73822783 63.79643512 20.66352844 61.55815125 C17.16819005 55.78858312 14.92420875 49.84194382 12.79296875 43.45703125 C12.42271072 42.37040695 12.0524527 41.28378265 11.67097473 40.16423035 C10.89558347 37.88077084 10.12520974 35.59560197 9.35961914 33.30883789 C8.18618778 29.80858576 6.99372255 26.31524142 5.79882812 22.82226562 C5.04573828 20.59673849 4.29374663 18.37083938 3.54296875 16.14453125 C3.18679977 15.10174515 2.8306308 14.05895905 2.46366882 12.98457336 C1.97734734 11.52231575 1.97734734 11.52231575 1.48120117 10.03051758 C1.19427902 9.17750565 0.90735687 8.32449371 0.61174011 7.44563293 C-0.03191105 4.87242506 -0.11189137 2.64162848 0 0 Z " fill="#063D9A" transform="translate(610,357)"/>
<path d="M0 0 C11.13740862 2.07690604 20.74799495 12.30410582 27.1875 21.0625 C33.90908328 31.65180998 37.17888649 43.79266142 37.1875 56.1875 C37.19974609 57.09564453 37.21199219 58.00378906 37.22460938 58.93945312 C37.23710671 64.75904393 36.94421633 70.4614469 35 76 C34.34 76.66 33.68 77.32 33 78 C33.09087891 77.12601563 33.09087891 77.12601563 33.18359375 76.234375 C33.36291518 74.47978376 33.5354418 72.72449171 33.703125 70.96875 C33.89713832 69.02861685 34.1149148 67.09067421 34.359375 65.15625 C36.3094786 47.88390382 31.37863219 31.86021156 21 18 C18.8244723 15.48166187 16.6384722 13.03976875 14 11 C13.34 11 12.68 11 12 11 C12 10.01 12 9.02 12 8 C11.319375 7.7525 10.63875 7.505 9.9375 7.25 C6.43134917 5.75802092 3.28379632 3.93164489 0 2 C0 1.34 0 0.68 0 0 Z " fill="#073C9A" transform="translate(661,352)"/>
<path d="M0 0 C2.45669601 2.45669601 3.06709106 4.53216913 4.1875 7.8125 C4.55230469 8.85019531 4.91710937 9.88789063 5.29296875 10.95703125 C6.05159035 14.22203801 6.2385269 15.89061813 5 19 C2.8125 20.7734375 2.8125 20.7734375 0 22.375 C-20.20012374 34.53151777 -33.12113568 51.56591485 -40 74 C-40.33 74 -40.66 74 -41 74 C-41 61.37690559 -33.12691477 49.20227659 -25 40 C-23.93845703 38.74316406 -23.93845703 38.74316406 -22.85546875 37.4609375 C-18.85130149 32.80023111 -18.85130149 32.80023111 -17 31 C-16.34 31 -15.68 31 -15 31 C-15 30.34 -15 29.68 -15 29 C-9.45222386 24.36514905 -3.37234542 20.39858423 3 17 C2.88637738 15.5199159 2.75877092 14.04089926 2.625 12.5625 C2.52058594 11.32693359 2.52058594 11.32693359 2.4140625 10.06640625 C2.20910156 9.04353516 2.20910156 9.04353516 2 8 C1.34 7.67 0.68 7.34 0 7 C-1.04449911 3.86650268 -0.93423645 3.01031744 0 0 Z " fill="#063C99" transform="translate(596,312)"/>
<path d="M0 0 C6.99252309 -0.07625818 13.98493835 -0.12868729 20.9777832 -0.16479492 C23.35510262 -0.17985252 25.73239439 -0.20030289 28.10961914 -0.22631836 C31.53278439 -0.26283403 34.95558132 -0.27975709 38.37890625 -0.29296875 C39.43646622 -0.30845261 40.49402618 -0.32393646 41.58363342 -0.33988953 C48.34691004 -0.34142126 53.25726623 0.199387 58.80981445 4.35424805 C60.40817444 6.56441105 61.175134 8.74691241 62.04296875 11.33203125 C62.39423828 12.37810547 62.74550781 13.42417969 63.10742188 14.50195312 C63.46384766 15.59443359 63.82027344 16.68691406 64.1875 17.8125 C64.55552734 18.89337891 64.92355469 19.97425781 65.30273438 21.08789062 C65.65013672 22.13783203 65.99753906 23.18777344 66.35546875 24.26953125 C66.67153076 25.22448486 66.98759277 26.17943848 67.31323242 27.16333008 C68.04937231 30.20393065 68.12126014 32.88323996 68 36 C65.78885966 33.78885966 65.45304854 32.66734547 64.6328125 29.7109375 C64.38660156 28.85113281 64.14039063 27.99132812 63.88671875 27.10546875 C63.3855365 25.30892314 62.88550457 23.51205617 62.38671875 21.71484375 C59.8881504 11.81591292 59.8881504 11.81591292 53.58398438 4.31079102 C48.52859288 2.46185389 43.82143334 2.52041885 38.4765625 2.48828125 C36.82459366 2.46135445 36.82459366 2.46135445 35.13925171 2.43388367 C31.63453965 2.37986242 28.12996317 2.34591036 24.625 2.3125 C22.24347075 2.2793198 19.86195938 2.24482949 17.48046875 2.20898438 C11.65376742 2.12414056 5.82704837 2.05575596 0 2 C0 1.34 0 0.68 0 0 Z " fill="#0C47A1" transform="translate(539,222)"/>
<path d="M0 0 C0.99 0.33 1.98 0.66 3 1 C2.360625 1.268125 1.72125 1.53625 1.0625 1.8125 C-1.33131686 2.88667752 -1.33131686 2.88667752 -2 6 C-2.34610627 8.34276105 -2.34610627 8.34276105 -2.4375 10.875 C-2.49808594 11.71804687 -2.55867187 12.56109375 -2.62109375 13.4296875 C-1.85674511 16.59284101 -0.35992277 17.93575271 2.14933777 19.93054199 C5.50560755 21.87005831 8.88483635 21.7262046 12.6796875 21.70703125 C13.49245148 21.72215256 14.30521545 21.73727386 15.14260864 21.75285339 C17.7203576 21.79559624 20.29693259 21.80455489 22.875 21.8125 C24.63023925 21.83565491 26.3854508 21.86102232 28.140625 21.88867188 C32.42718649 21.95139108 36.71302042 21.98383109 41 22 C42.15759783 24.82901192 43.30115001 27.66246068 44.4375 30.5 C44.76298828 31.29148438 45.08847656 32.08296875 45.42382812 32.8984375 C47.44934733 37.99355796 48.55471752 42.53117857 49 48 C47 45 47 45 47 42 C46.34 42 45.68 42 45 42 C44.16320723 39.37605694 43.33043058 36.75095616 42.5 34.125 C42.26152344 33.37863281 42.02304687 32.63226563 41.77734375 31.86328125 C40 26.2265625 40 26.2265625 40 24 C38.94087402 24.02094727 37.88174805 24.04189453 36.79052734 24.06347656 C32.84340043 24.13613385 28.89633208 24.18189254 24.94873047 24.21972656 C23.24355106 24.23978369 21.53843994 24.26703657 19.83349609 24.30175781 C17.37580476 24.35053861 14.91902634 24.37302719 12.4609375 24.390625 C11.70444916 24.41127014 10.94796082 24.43191528 10.16854858 24.45318604 C4.98340706 24.45536092 2.14984078 23.36032828 -2 20 C-4.97835973 16.91893821 -5.83218216 14.27935489 -6 10 C-4.63889838 5.98475022 -3.34578365 2.70849153 0 0 Z " fill="#063F9D" transform="translate(535,224)"/>
<path d="M0 0 C2.89745353 1.44872677 3.04798521 3.31398156 4.1875 6.3125 C13.99013272 30.19937512 31.66891709 45.67725468 55 56 C57.98582284 57.13687834 60.93165721 58.10065815 64 59 C64 59.33 64 59.66 64 60 C48.02026187 60 31.36556738 47.24671244 20.1875 36.6875 C12.96274486 29.03381691 7.42063727 20.41064447 2.9375 10.9375 C2.63827637 10.30634277 2.33905273 9.67518555 2.03076172 9.02490234 C0.53446992 5.70548063 0 3.72006921 0 0 Z " fill="#063C99" transform="translate(555,436)"/>
<path d="M0 0 C0.495 1.485 0.495 1.485 1 3 C-0.56731445 5.34946174 -2.14527387 7.45769024 -3.9375 9.625 C-4.69377686 10.55517944 -4.69377686 10.55517944 -5.46533203 11.50415039 C-6.48752174 12.75488108 -7.51484758 14.00143241 -8.54736328 15.24365234 C-9.83259205 16.79759113 -11.08852983 18.37565456 -12.33984375 19.95703125 C-13.34724609 21.18486328 -13.34724609 21.18486328 -14.375 22.4375 C-14.96023438 23.15808594 -15.54546875 23.87867188 -16.1484375 24.62109375 C-18 26 -18 26 -20.203125 26.00390625 C-24.16888928 24.58044058 -27.70418258 22.55330501 -31.375 20.5 C-43.96872571 13.64722034 -57.35680979 8.38775967 -71 4 C-71 3.34 -71 2.68 -71 2 C-55.0226351 4.80304647 -37.95190652 12.80639835 -24.1875 21.3359375 C-21.29978723 23.20541264 -21.29978723 23.20541264 -18.99414062 22.83154297 C-16.46554732 21.7771369 -15.52788361 20.55686686 -13.90625 18.359375 C-13.35066406 17.61816406 -12.79507813 16.87695312 -12.22265625 16.11328125 C-11.65417969 15.33339844 -11.08570313 14.55351563 -10.5 13.75 C-9.36492828 12.22370174 -8.22951977 10.69765388 -7.09375 9.171875 C-6.29710937 8.09196289 -6.29710937 8.09196289 -5.484375 6.99023438 C-3.71210496 4.61399336 -1.87405245 2.2966329 0 0 Z " fill="#08419D" transform="translate(653,584)"/>
<path d="M0 0 C3 1 3 1 4.90234375 4.31640625 C5.59091433 5.72684385 6.26888681 7.14249293 6.9375 8.5625 C7.27201172 9.25408203 7.60652344 9.94566406 7.95117188 10.65820312 C8.62815895 12.05783152 9.30051303 13.45971012 9.96826172 14.86376953 C11.02977521 17.06165005 12.13947638 19.2308985 13.25390625 21.40234375 C15 25 15 25 15 27 C12 26 12 26 10.0625 22.61328125 C9.36481175 21.1846181 8.67771956 19.7507432 8 18.3125 C7.65710938 17.60416016 7.31421875 16.89582031 6.9609375 16.16601562 C6.28654553 14.77218642 5.6158769 13.37654864 4.94921875 11.97900391 C3.6655946 9.30280603 2.33569242 6.65051465 1 4 C-3.60660069 8.2370413 -6.97805339 13.03396175 -10.5 18.1875 C-11.7334334 19.96810054 -12.96783186 21.74803291 -14.203125 23.52734375 C-14.82896484 24.43081543 -15.45480469 25.33428711 -16.09960938 26.26513672 C-19.12141435 30.61383397 -22.17399754 34.93950334 -25.25 39.25 C-25.79849609 40.03012451 -26.34699219 40.81024902 -26.91210938 41.61401367 C-27.42064453 42.32404541 -27.92917969 43.03407715 -28.453125 43.765625 C-29.12069824 44.70583496 -29.12069824 44.70583496 -29.80175781 45.66503906 C-30.19717773 46.10557617 -30.59259766 46.54611328 -31 47 C-31.66 47 -32.32 47 -33 47 C-31.58719871 42.93083794 -29.6360688 39.95643858 -27 36.5625 C-26.18343945 35.49851196 -25.36839242 34.43336103 -24.5546875 33.3671875 C-24.1328418 32.81514648 -23.71099609 32.26310547 -23.27636719 31.69433594 C-21.17014132 28.89838959 -19.14845877 26.04362636 -17.125 23.1875 C-13.43484714 17.99189346 -9.70426808 12.82786395 -5.9375 7.6875 C-5.22134521 6.70849731 -5.22134521 6.70849731 -4.49072266 5.7097168 C-1.12421088 1.12421088 -1.12421088 1.12421088 0 0 Z " fill="#053C99" transform="translate(449,339)"/>
<path d="M0 0 C0.495 0.99 0.495 0.99 1 2 C-3.98898432 7.40473301 -3.98898432 7.40473301 -8 8 C-10.6916032 8.08332859 -13.3560833 8.11629936 -16.046875 8.09765625 C-16.81807678 8.0962413 -17.58927856 8.09482635 -18.3838501 8.09336853 C-20.83927338 8.08778534 -23.29460442 8.07523595 -25.75 8.0625 C-27.41796743 8.05748283 -29.08593629 8.0529203 -30.75390625 8.04882812 C-34.83597287 8.03782141 -38.91797081 8.02056836 -43 8 C-42.9896875 9.09441406 -42.979375 10.18882812 -42.96875 11.31640625 C-42.99503889 14.41520887 -43.27449683 17.00729941 -44 20 C-44.66 20 -45.32 20 -46 20 C-45.9131724 17.87422093 -45.8050049 15.74930419 -45.6875 13.625 C-45.62949219 12.44164062 -45.57148438 11.25828125 -45.51171875 10.0390625 C-45.34285156 9.03617187 -45.17398437 8.03328125 -45 7 C-41.21249434 4.47499623 -38.17519215 4.72094282 -33.7890625 4.7265625 C-32.13540992 4.70627165 -30.48176414 4.68542083 -28.828125 4.6640625 C-26.2255276 4.64147392 -23.6231987 4.62499595 -21.02050781 4.61914062 C-18.50536759 4.60960274 -15.99143202 4.57581005 -13.4765625 4.5390625 C-12.31539413 4.54663071 -12.31539413 4.54663071 -11.13076782 4.55435181 C-6.12974914 4.46357708 -3.54694032 3.53990798 0 0 Z " fill="#0A45A1" transform="translate(517,412)"/>
<path d="M0 0 C-1.07636719 0.52207031 -2.15273438 1.04414063 -3.26171875 1.58203125 C-27.07145945 13.45130746 -42.85144778 31.47008233 -53 56 C-54.28640388 52.10766666 -53.42266075 50.12364572 -51.59985352 46.46728516 C-51.23690186 45.77683105 -50.8739502 45.08637695 -50.5 44.375 C-50.13124756 43.66005371 -49.76249512 42.94510742 -49.38256836 42.20849609 C-42.50027186 29.11808725 -18.21492778 -5.46447834 0 0 Z " fill="#083E9A" transform="translate(357,329)"/>
<path d="M0 0 C1.74818406 2.62227609 3.21282523 5.22033907 4.6875 8 C10.17876897 19.47070073 10.17876897 19.47070073 19 28 C22.50654968 28.36252397 22.50654968 28.36252397 26.25 28.1875 C27.51328125 28.16042969 28.7765625 28.13335937 30.078125 28.10546875 C31.52445312 28.05326172 31.52445312 28.05326172 33 28 C35.03374027 31.78488085 37.04976448 35.57891335 39.0625 39.375 C39.64322266 40.45523438 40.22394531 41.53546875 40.82226562 42.6484375 C41.36689453 43.6796875 41.91152344 44.7109375 42.47265625 45.7734375 C43.23461304 47.20308838 43.23461304 47.20308838 44.01196289 48.66162109 C44.33801514 49.43328613 44.66406738 50.20495117 45 51 C44.505 51.99 44.505 51.99 44 53 C40.36692838 47.32332559 36.98548443 41.53272851 33.6796875 35.66162109 C32.09097769 32.65043498 32.09097769 32.65043498 30 30 C29.46375 30.144375 28.9275 30.28875 28.375 30.4375 C23.84968696 31.50928467 20.31726493 31.68375741 16.1328125 29.51171875 C12.08803904 26.66293969 9.79769547 22.6567663 7.25 18.5 C6.52876953 17.36111328 6.52876953 17.36111328 5.79296875 16.19921875 C-0.29610749 6.51436489 -0.29610749 6.51436489 0 0 Z " fill="#073D98" transform="translate(392,256)"/>
<path d="M0 0 C-5.75647535 2.7058064 -11.49966312 4.25930002 -17.68359375 5.69921875 C-18.69792984 5.9391304 -19.71226593 6.17904205 -20.75733948 6.42622375 C-22.89385894 6.92941208 -25.03116147 7.42928576 -27.16918945 7.92602539 C-30.42611092 8.68484649 -33.67886821 9.45993915 -36.93164062 10.23632812 C-39.0153926 10.72495047 -41.09936996 11.21261285 -43.18359375 11.69921875 C-44.14841171 11.93041916 -45.11322968 12.16161957 -46.10728455 12.39982605 C-51.54828849 13.64803442 -56.41771079 14.24149602 -62 14 C-62 13.34 -62 12.68 -62 12 C-62.99 11.67 -63.98 11.34 -65 11 C-64.06450317 11.05655762 -64.06450317 11.05655762 -63.11010742 11.11425781 C-54.79393192 11.38877381 -47.34939419 9.75439796 -39.3125 7.75 C-37.97828248 7.42651746 -36.64380741 7.10409546 -35.30908203 6.78271484 C-31.53556589 5.87041529 -27.76752066 4.93676624 -24 4 C-22.20969892 3.55963756 -20.41934413 3.1194934 -18.62890625 2.6796875 C-12.16904647 1.08863788 -12.16904647 1.08863788 -5.7421875 -0.62890625 C-3.56923752 -1.09175434 -2.09193276 -0.67240696 0 0 Z " fill="#0744A3" transform="translate(570,301)"/>
<path d="M0 0 C0.66 0 1.32 0 2 0 C4.91337502 21.06779458 3.51947105 40.25247477 -1 61 C-1.66 61 -2.32 61 -3 61 C-2.55392302 56.39053792 -1.99502501 51.97045163 -0.98632812 47.45117188 C0.07071504 42.1926037 0.25899366 37.18509313 0.1953125 31.8359375 C0.1924826 30.91785309 0.18965271 29.99976868 0.18673706 29.05386353 C0.17566399 26.16076864 0.15058467 23.26799914 0.125 20.375 C0.11495352 18.39713993 0.10583061 16.41927494 0.09765625 14.44140625 C0.07576705 9.62748141 0.04132832 4.8137956 0 0 Z " fill="#083E99" transform="translate(726,397)"/>
<path d="M0 0 C7.06580552 -0.0506353 14.1315644 -0.0857062 21.19750977 -0.10986328 C23.60214995 -0.11993201 26.00677786 -0.13358785 28.41137695 -0.15087891 C31.86412584 -0.17508874 35.3167131 -0.18647432 38.76953125 -0.1953125 C39.84773636 -0.20563507 40.92594147 -0.21595764 42.03681946 -0.22659302 C43.53803596 -0.22681961 43.53803596 -0.22681961 45.06958008 -0.22705078 C45.95116287 -0.231492 46.83274567 -0.23593323 47.74104309 -0.24050903 C50 0 50 0 53 2 C52.05159492 2.01213028 52.05159492 2.01213028 51.08403015 2.02450562 C44.51422719 2.11044035 37.94472982 2.20993898 31.37524414 2.31738281 C28.92217127 2.35570954 26.46904149 2.39055582 24.01586914 2.421875 C20.49344515 2.46744507 16.97141425 2.52545321 13.44921875 2.5859375 C12.34913986 2.59748871 11.24906097 2.60903992 10.11564636 2.62094116 C9.09481461 2.64081085 8.07398285 2.66068054 7.0222168 2.68115234 C5.67319527 2.70113785 5.67319527 2.70113785 4.29692078 2.7215271 C1.72430104 2.85841974 1.72430104 2.85841974 -1 5 C-0.67 3.35 -0.34 1.7 0 0 Z " fill="#03278A" transform="translate(486,442)"/>
<path d="M0 0 C0.98881171 2.59539531 1.09107601 3.7451531 0.14233398 6.39990234 C-0.31842529 7.28629395 -0.77918457 8.17268555 -1.25390625 9.0859375 C-1.77235107 10.08955322 -2.2907959 11.09316895 -2.82495117 12.12719727 C-3.39834229 13.19897217 -3.9717334 14.27074707 -4.5625 15.375 C-5.14298096 16.47448975 -5.72346191 17.57397949 -6.3215332 18.70678711 C-10.50133828 26.50056236 -14.96230547 34.08770703 -19.6875 41.5625 C-20.28699463 42.51366699 -20.88648926 43.46483398 -21.50415039 44.44482422 C-24.69024156 49.37241272 -24.69024156 49.37241272 -26 51 C-26.66 51 -27.32 51 -28 51 C-26.41150524 46.46020349 -24.02577745 42.70062982 -21.4375 38.6875 C-13.51010538 26.186664 -6.46836931 13.31111369 0 0 Z " fill="#073894" transform="translate(708,498)"/>
<path d="M0 0 C0.33 0 0.66 0 1 0 C1.02505615 1.00377686 1.0501123 2.00755371 1.07592773 3.04174805 C1.17035296 6.7785236 1.27048686 10.51512843 1.37231445 14.25170898 C1.41553083 15.86657711 1.45721489 17.48148702 1.49731445 19.09643555 C1.55534048 21.42249117 1.61894029 23.74833904 1.68359375 26.07421875 C1.70866249 27.15107185 1.70866249 27.15107185 1.73423767 28.24967957 C1.8426968 31.94920095 2.22029397 35.38771596 3 39 C3.03824623 41.33301986 3.04574284 43.66711508 3 46 C2.34 46 1.68 46 1 46 C0.86722656 45.08476562 0.73445313 44.16953125 0.59765625 43.2265625 C0.42105469 42.03804688 0.24445313 40.84953125 0.0625 39.625 C-0.19853516 37.84996094 -0.19853516 37.84996094 -0.46484375 36.0390625 C-0.83462786 33.09297619 -0.83462786 33.09297619 -2 31 C-2.24149742 27.86053355 -2.18977192 24.71024133 -2.1875 21.5625 C-2.1884668 20.20946777 -2.1884668 20.20946777 -2.18945312 18.82910156 C-2.13848629 12.38643012 -1.60860959 6.26208733 0 0 Z " fill="#073B99" transform="translate(298,404)"/>
<path d="M0 0 C0.33 0.99 0.66 1.98 1 3 C-0.04467773 4.81835938 -0.04467773 4.81835938 -1.68359375 6.84375 C-2.27769043 7.59011719 -2.87178711 8.33648437 -3.48388672 9.10546875 C-4.45092529 10.29076172 -4.45092529 10.29076172 -5.4375 11.5 C-6.74220077 13.1343675 -8.04559292 14.76978053 -9.34765625 16.40625 C-9.98074707 17.19773437 -10.61383789 17.98921875 -11.26611328 18.8046875 C-13.38337896 21.48540462 -15.38993686 24.22011279 -17.375 27 C-21.06524028 32.15195884 -24.99530308 37.08998596 -29 42 C-29.66 41.67 -30.32 41.34 -31 41 C-30.30777344 40.07703125 -29.61554687 39.1540625 -28.90234375 38.203125 C-28.2052832 37.27367065 -28.2052832 37.27367065 -27.49414062 36.32543945 C-26.4421611 34.92285508 -25.39007499 33.52035064 -24.33789062 32.11791992 C-21.22406094 27.96719939 -18.11254011 23.81476989 -15.00390625 19.66015625 C-14.33818604 18.77102539 -13.67246582 17.88189453 -12.98657227 16.96582031 C-11.6830267 15.22476916 -10.3801083 13.48324821 -9.07788086 11.74121094 C-6.10962809 7.77825452 -3.12791916 3.83952077 0 0 Z " fill="#063B98" transform="translate(550,368)"/>
<path d="M0 0 C-2.69155152 0.96895855 -4.28014027 0.95861884 -7.15844727 0.53344727 C-11.10304729 -0.01430939 -14.93186438 -0.12754192 -18.90234375 -0.09765625 C-19.98619102 -0.09553383 -19.98619102 -0.09553383 -21.0919342 -0.09336853 C-23.37383365 -0.08782225 -25.65563079 -0.0752802 -27.9375 -0.0625 C-29.49544128 -0.05747804 -31.05338412 -0.05291636 -32.61132812 -0.04882812 C-36.40759081 -0.0378705 -40.20377813 -0.02064372 -44 0 C-43.67 -0.66 -43.34 -1.32 -43 -2 C-29.47312009 -5.39744891 -12.93657538 -5.67017484 0 0 Z " fill="#0746A9" transform="translate(415,324)"/>
<path d="M0 0 C0.33 0.99 0.66 1.98 1 3 C-0.328125 5.64453125 -0.328125 5.64453125 -2.25 8.8125 C-9.34593463 21.31185745 -9.56587887 34.95842686 -10 49 C-14.08349599 42.78455831 -12.93672259 31.95270781 -11.59716797 24.87011719 C-9.56544623 16.84882501 -6.00799641 6.00799641 0 0 Z " fill="#063997" transform="translate(590,371)"/>
<path d="M0 0 C3.07610266 2.65278578 4.65207425 5.82535716 6.5625 9.375 C10.69003673 16.84513593 15.63735741 23.36965789 21 30 C22.04414062 31.35931641 22.04414062 31.35931641 23.109375 32.74609375 C24.97822917 35.18842316 24.97822917 35.18842316 28 37 C27.67 37.99 27.34 38.98 27 40 C15.74915289 29.74922819 6.13250735 16.98127956 0 3 C0 2.01 0 1.02 0 0 Z " fill="#043D9C" transform="translate(540,446)"/>
<path d="M0 0 C0.66 0.33 1.32 0.66 2 1 C1.36191406 1.89203125 0.72382813 2.7840625 0.06640625 3.703125 C-0.76854633 4.8851927 -1.60316426 6.06749684 -2.4375 7.25 C-2.85837891 7.83652344 -3.27925781 8.42304688 -3.71289062 9.02734375 C-7.58904775 14.5469915 -8.48146448 18.25949731 -8 25 C-6.39189552 28.30554809 -5.27233179 28.89320322 -1.8125 30.25 C-0.884375 30.4975 0.04375 30.745 1 31 C1 31.66 1 32.32 1 33 C-3.01349645 32.71998862 -4.72035142 32.24236211 -7.8125 29.5625 C-10.84053816 26.01536958 -11.35812076 23.90695244 -11.2734375 19.20703125 C-10.33957766 11.66944829 -4.65253051 5.64576737 0 0 Z " fill="#083D99" transform="translate(383,386)"/>
<path d="M0 0 C3.13042098 0.28001472 4.07170661 1.07426756 6.296875 3.37890625 C7.12967693 4.42830078 7.94650886 5.49049724 8.75 6.5625 C9.18175537 7.13315186 9.61351074 7.70380371 10.05834961 8.29174805 C13.317557 12.75136926 16.05324385 17.39554178 18.5625 22.3125 C19.06378418 23.27941772 19.06378418 23.27941772 19.57519531 24.26586914 C21.80986834 28.86151769 22.5874484 32.90809602 23 38 C20.51648319 35.51648319 19.96725504 33.37700166 18.8125 30.0625 C14.8905635 19.66879657 8.87086233 11.54228515 1.72265625 3.1171875 C0 1 0 1 0 0 Z " fill="#083C98" transform="translate(701,350)"/>
<path d="M0 0 C5.29104455 0.50004763 9.38156132 1.80659748 14.0625 4.375 C14.69937744 4.71789062 15.33625488 5.06078125 15.99243164 5.4140625 C23.2632597 9.4793563 29.63358844 14.66359339 36 20 C35.505 21.485 35.505 21.485 35 23 C33.87464844 22.02160156 33.87464844 22.02160156 32.7265625 21.0234375 C22.59881552 12.32680331 12.24412308 6.41197917 0 1 C0 0.67 0 0.34 0 0 Z " fill="#073E9D" transform="translate(664,326)"/>
<path d="M0 0 C0.66 0 1.32 0 2 0 C-0.90493796 9.74606685 -7.142803 18.10532197 -13.25 26.125 C-13.66185547 26.66906494 -14.07371094 27.21312988 -14.49804688 27.77368164 C-16.74402406 30.65623137 -18.95269081 32.97312003 -22 35 C-21.41346951 31.64211296 -20.36406133 30.04378497 -18 27.625 C-10.64692097 19.53056115 -5.07487677 9.63971568 0 0 Z " fill="#063C9A" transform="translate(483,448)"/>
<path d="M0 0 C3.33325754 -0.05874776 6.66637938 -0.09384467 10 -0.125 C10.93457031 -0.14175781 11.86914062 -0.15851563 12.83203125 -0.17578125 C18.59209963 -0.21606145 23.4774282 0.34583345 29 2 C28.14575854 6.17279239 26.01647265 8.94828311 23.4375 12.25 C23.01275391 12.80429687 22.58800781 13.35859375 22.15039062 13.9296875 C21.10601659 15.29089411 20.05377536 16.64605833 19 18 C18.67 17.01 18.34 16.02 18 15 C19.65234375 12.30078125 19.65234375 12.30078125 21.9375 9.3125 C22.68902344 8.31863281 23.44054687 7.32476562 24.21484375 6.30078125 C24.80394531 5.54152344 25.39304687 4.78226562 26 4 C17.34291147 2.89369712 8.69262672 1.79403802 0 1 C0 0.67 0 0.34 0 0 Z " fill="#053B98" transform="translate(381,347)"/>
<path d="M0 0 C4.83132038 0.43921094 6.88171529 1.29733265 10 5 C11.18847656 7.56201172 11.18847656 7.56201172 12.140625 10.4296875 C12.48867188 11.47253906 12.83671875 12.51539063 13.1953125 13.58984375 C13.71738281 15.21599609 13.71738281 15.21599609 14.25 16.875 C14.79527344 18.48955078 14.79527344 18.48955078 15.3515625 20.13671875 C17.04702185 25.3059576 18.20872506 29.51336799 18 35 C15.78885966 32.78885966 15.45304854 31.66734547 14.6328125 28.7109375 C14.38660156 27.85113281 14.14039063 26.99132812 13.88671875 26.10546875 C13.3855365 24.30892314 12.88550457 22.51205617 12.38671875 20.71484375 C9.70311369 10.40440285 9.70311369 10.40440285 2.75 3 C1.8425 2.67 0.935 2.34 0 2 C0 1.34 0 0.68 0 0 Z " fill="#063893" transform="translate(589,223)"/>
<path d="M0 0 C4.22684184 0.556706 7.08998065 3.12443559 10.375 5.625 C17.20734581 10.68768615 24.2769548 14.45538047 32 18 C32 18.66 32 19.32 32 20 C27.17878019 19.40432805 23.52846323 17.36324549 19.375 15 C18.67439453 14.60425781 17.97378906 14.20851563 17.25195312 13.80078125 C10.97711462 10.16103046 5.27590175 6.00763556 0 1 C0 0.67 0 0.34 0 0 Z " fill="#0541A1" transform="translate(569,487)"/>
<path d="M0 0 C0.33 0 0.66 0 1 0 C0.60476179 7.22321926 -0.85865775 13.42353045 -3.375 20.1875 C-3.83132813 21.46270508 -3.83132813 21.46270508 -4.296875 22.76367188 C-6.03932177 27.5851859 -7.9309643 32.30976263 -10 37 C-10.66 37 -11.32 37 -12 37 C-11.38012856 33.52802344 -10.49162098 30.35277 -9.2578125 27.05078125 C-8.91363281 26.11943359 -8.56945312 25.18808594 -8.21484375 24.22851562 C-7.85519531 23.26623047 -7.49554687 22.30394531 -7.125 21.3125 C-4.49656727 14.26964821 -2.06517885 7.23009846 0 0 Z " fill="#083A96" transform="translate(722,459)"/>
<path d="M0 0 C0 4.22119225 -1.83671468 5.62298247 -4.59765625 8.671875 C-10.47993135 14.37242128 -17.63736433 20.4165245 -25 24 C-27.3125 23.6875 -27.3125 23.6875 -29 23 C-28.12859375 22.47792969 -27.2571875 21.95585937 -26.359375 21.41796875 C-16.4096307 15.31860552 -8.21629541 8.29873316 0 0 Z " fill="#063B99" transform="translate(454,465)"/>
<path d="M0 0 C0.33 0.99 0.66 1.98 1 3 C-0.27587891 5.15722656 -0.27587891 5.15722656 -2.2265625 7.640625 C-2.92910156 8.54683594 -3.63164063 9.45304687 -4.35546875 10.38671875 C-5.10441406 11.33160156 -5.85335937 12.27648437 -6.625 13.25 C-8.07638484 15.10870066 -9.52692375 16.96806221 -10.9765625 18.828125 C-11.67040039 19.71048828 -12.36423828 20.59285156 -13.07910156 21.50195312 C-14.75791577 23.68517973 -16.34212334 25.90086844 -17.8984375 28.171875 C-18.59195313 29.10515625 -19.28546875 30.0384375 -20 31 C-20.66 31 -21.32 31 -22 31 C-20.59213375 27.98556985 -18.93552319 25.40330773 -16.953125 22.734375 C-16.355 21.92613281 -15.756875 21.11789062 -15.140625 20.28515625 C-14.51671875 19.44855469 -13.8928125 18.61195313 -13.25 17.75 C-12.6415625 16.92886719 -12.033125 16.10773438 -11.40625 15.26171875 C-7.62280072 10.16052966 -3.81573182 5.07707253 0 0 Z " fill="#063B98" transform="translate(574,336)"/>
<path d="M0 0 C4.79451797 -0.19178072 8.59888976 -0.00050465 13 2 C15.51447583 4.3410637 16.00551971 6.02129031 16.875 9.375 C17.0204387 13.5927223 16.30626876 15.5008336 14 19 C11.47901573 21.60791476 10.41998632 21.97577002 6.75 22.1875 C5.38875 22.0946875 5.38875 22.0946875 4 22 C7 20 7 20 9.625 19 C12.15139938 18.23952738 12.15139938 18.23952738 13 16 C13.2737932 13.66301325 13.2737932 13.66301325 13.3125 11.0625 C13.36857422 9.74958984 13.36857422 9.74958984 13.42578125 8.41015625 C13.21576919 5.88794363 13.21576919 5.88794363 11.27734375 4.2578125 C8.89492022 2.9419628 6.91595447 2.32216777 4.25 1.8125 C3.05117188 1.57466797 3.05117188 1.57466797 1.828125 1.33203125 C0.92320312 1.16767578 0.92320312 1.16767578 0 1 C0 0.67 0 0.34 0 0 Z " fill="#073C9A" transform="translate(465,252)"/>
<path d="M0 0 C0.33 0.66 0.66 1.32 1 2 C-0.07421875 3.99609375 -0.07421875 3.99609375 -1.6875 6.4375 C-7.26996096 15.46528489 -9.61260716 24.53978823 -11 35 C-11.33 35 -11.66 35 -12 35 C-14.18546384 23.65571732 -9.42910235 13.87111039 -3.5859375 4.328125 C-2 2 -2 2 0 0 Z " fill="#063D9A" transform="translate(342,369)"/>
<path d="M0 0 C-4.05258503 2.65188574 -8.2749285 4.32474229 -12.8125 5.9375 C-17.27182511 7.55039364 -21.57473681 9.16438885 -25.75 11.4375 C-29.19015409 13.09142024 -29.62922446 13.12114926 -33 12 C-4.81262231 -1.60420744 -4.81262231 -1.60420744 0 0 Z " fill="#073F9C" transform="translate(441,588)"/>
<path d="M0 0 C3.03220012 1.51610006 3.14801044 3.78948316 4.25 6.9375 C6.9827508 14.28682095 10.16453587 21.57888835 16 27 C15.67 27.99 15.34 28.98 15 30 C10.48139968 25.48139968 7.55419564 20.65549194 4.6875 15 C4.33816406 14.32388672 3.98882813 13.64777344 3.62890625 12.95117188 C1.478397 8.58665408 0.43565849 4.8490684 0 0 Z " fill="#063C99" transform="translate(580,421)"/>
<path d="M0 0 C0.99 0.33 1.98 0.66 3 1 C-2.01302821 6.61060773 -7.39779683 10.42795373 -14 14 C-14.67675781 14.38542969 -15.35351562 14.77085937 -16.05078125 15.16796875 C-18 16 -18 16 -22 16 C-22 15.34 -22 14.68 -22 14 C-20.89140625 13.46890625 -19.7828125 12.9378125 -18.640625 12.390625 C-17.17687294 11.67751502 -15.71334286 10.96394929 -14.25 10.25 C-13.52039063 9.90195312 -12.79078125 9.55390625 -12.0390625 9.1953125 C-8.00456876 7.21474285 -5.09287546 5.33309879 -2 2 C-1.34 2 -0.68 2 0 2 C0 1.34 0 0.68 0 0 Z " fill="#063F9E" transform="translate(429,449)"/>
<path d="M0 0 C0.33 0 0.66 0 1 0 C1 6.58780649 -0.86466979 11.44221217 -3.75 17.25 C-4.08515625 17.93513672 -4.4203125 18.62027344 -4.765625 19.32617188 C-6.99094678 23.64616207 -9.39047301 26.74385327 -13 30 C-11.34287011 25.56953874 -9.22260814 21.447797 -7.0625 17.25 C-4.1888706 11.60076446 -1.74685974 6.11400909 0 0 Z " fill="#053A97" transform="translate(470,433)"/>
<path d="M0 0 C0.99 0.33 1.98 0.66 3 1 C2.3709375 1.81082031 1.741875 2.62164062 1.09375 3.45703125 C-4.39590252 10.55222945 -9.77000837 17.71015134 -15 25 C-15.33 24.01 -15.66 23.02 -16 22 C-14.86010742 19.96289062 -14.86010742 19.96289062 -13.10546875 17.65625 C-12.47962891 16.82222656 -11.85378906 15.98820312 -11.20898438 15.12890625 C-10.54189453 14.26136719 -9.87480469 13.39382813 -9.1875 12.5 C-7.88902854 10.78147238 -6.59083951 9.06273133 -5.29296875 7.34375 C-4.7105542 6.58255859 -4.12813965 5.82136719 -3.52807617 5.03710938 C-2.29799442 3.39726242 -1.1370947 1.70564205 0 0 Z " fill="#063D9C" transform="translate(567,303)"/>
<path d="M0 0 C0 0.33 0 0.66 0 1 C-24.98265839 3.38776806 -24.98265839 3.38776806 -35 3 C-24.57010925 -2.85754528 -11.43408179 -0.94963193 0 0 Z " fill="#0C4EA7" transform="translate(505,577)"/>
<path d="M0 0 C0 0.66 0 1.32 0 2 C-0.845625 2.42410156 -1.69125 2.84820312 -2.5625 3.28515625 C-8.85351953 6.5378993 -14.38938304 9.72199504 -19.4140625 14.8125 C-19.93742187 15.204375 -20.46078125 15.59625 -21 16 C-21.99 15.67 -22.98 15.34 -24 15 C-7.92059553 0 -7.92059553 0 0 0 Z " fill="#07419F" transform="translate(368,351)"/>
<path d="M0 0 C0.495 0.99 0.495 0.99 1 2 C-2.711518 6.72641162 -2.711518 6.72641162 -5.92202759 7.40811157 C-8.23325821 7.48145826 -10.4923679 7.40619131 -12.80078125 7.26953125 C-13.63715622 7.24026047 -14.47353119 7.21098969 -15.33525085 7.18083191 C-17.99594264 7.08217954 -20.65344851 6.94786902 -23.3125 6.8125 C-25.12034852 6.73917603 -26.92829331 6.66818606 -28.73632812 6.59960938 C-33.15912391 6.42676282 -37.57940646 6.22193197 -42 6 C-42 5.67 -42 5.34 -42 5 C-40.90534424 4.9906543 -39.81068848 4.98130859 -38.68286133 4.97167969 C-34.61034889 4.93172063 -30.5385872 4.86594598 -26.46655273 4.79248047 C-24.70623439 4.76430501 -22.94579033 4.74307341 -21.18530273 4.72900391 C-18.65022589 4.70752627 -16.1166549 4.66085408 -13.58203125 4.609375 C-12.79850784 4.60814636 -12.01498444 4.60691772 -11.2077179 4.60565186 C-6.2259965 4.4729749 -3.67248058 3.66928434 0 0 Z " fill="#033C9F" transform="translate(517,412)"/>
<path d="M0 0 C0.33 0.99 0.66 1.98 1 3 C-0.06396484 4.96118164 -0.06396484 4.96118164 -1.7109375 7.16015625 C-2.29617188 7.95357422 -2.88140625 8.74699219 -3.484375 9.56445312 C-4.10828125 10.38880859 -4.7321875 11.21316406 -5.375 12.0625 C-6.59212576 13.69849017 -7.80831765 15.33517566 -9.0234375 16.97265625 C-9.56919434 17.69718994 -10.11495117 18.42172363 -10.67724609 19.16821289 C-12.04976781 20.96531907 -12.04976781 20.96531907 -13 23 C-13.99 22.67 -14.98 22.34 -16 22 C-14.89591797 20.49759766 -14.89591797 20.49759766 -13.76953125 18.96484375 C-12.7838305 17.62241321 -11.79815476 16.27996431 -10.8125 14.9375 C-10.32974609 14.28072266 -9.84699219 13.62394531 -9.34960938 12.94726562 C-6.19918452 8.65507606 -3.0861422 4.33865329 0 0 Z " fill="#073894" transform="translate(678,550)"/>
<path d="M0 0 C-8.53541221 5.54025847 -18.01986811 6.53044008 -28 6 C-24.39002938 3.87971346 -20.77860756 3.25654652 -16.6875 2.5 C-12.77067556 1.77128848 -8.94921762 1.01836439 -5.14453125 -0.15625 C-2 -1 -2 -1 0 0 Z " fill="#083B9A" transform="translate(415,494)"/>
<path d="M0 0 C1.88138672 0.05414063 1.88138672 0.05414063 3.80078125 0.109375 C5.22970703 0.17898437 5.22970703 0.17898437 6.6875 0.25 C7.0175 0.91 7.3475 1.57 7.6875 2.25 C6.25857422 2.28867188 6.25857422 2.28867188 4.80078125 2.328125 C3.54652344 2.38484375 2.29226563 2.4415625 1 2.5 C-0.24136719 2.54640625 -1.48273438 2.5928125 -2.76171875 2.640625 C-7.66653799 3.48237616 -9.89621793 5.83371793 -13.3125 9.25 C-13.0354842 5.92581042 -12.57438492 4.51970238 -10.21875 2.09375 C-6.55320446 -0.23170362 -4.30146045 -0.16080226 0 0 Z " fill="#09419D" transform="translate(406.3125,244.75)"/>
<path d="M0 0 C3.46307571 1.15435857 3.41569866 1.47992558 5 4.5 C6.77961368 7.1942139 7.58044924 7.89644375 10.76953125 8.68359375 C13.52767636 8.91373423 16.23314945 9.03391936 19 9 C15.11722583 10.99203197 12.48065757 12.2987105 8 12 C4.8259293 9.01492826 2.29895354 5.69623958 0 2 C0 1.34 0 0.68 0 0 Z " fill="#0543A3" transform="translate(387,504)"/>
<path d="M0 0 C0 4.71745628 -2.78952323 7.31899904 -5.6953125 10.87109375 C-8.13765758 13.12715827 -9.10912056 13.70812975 -12.375 13.75 C-16 13 -16 13 -18 11 C-17.41992188 11.020625 -16.83984375 11.04125 -16.2421875 11.0625 C-11.22058653 10.93860711 -11.22058653 10.93860711 -7.171875 8.22265625 C-6.16517001 6.81682832 -5.20092872 5.37927405 -4.2890625 3.91015625 C-3 2 -3 2 0 0 Z " fill="#043D9C" transform="translate(639,502)"/>
<path d="M0 0 C0.99 0.33 1.98 0.66 3 1 C-1.79031507 5.38579957 -6.45889287 9.59008792 -12 13 C-12.66 12.67 -13.32 12.34 -14 12 C-10.98085723 8.78607382 -7.79659911 5.91028215 -4.375 3.125 C-3.24191406 2.20074219 -3.24191406 2.20074219 -2.0859375 1.2578125 C-1.39757812 0.84273438 -0.70921875 0.42765625 0 0 Z " fill="#0643A3" transform="translate(455,486)"/>
<path d="M0 0 C0 3 0 3 -2.51953125 5.62890625 C-3.60963132 6.61518726 -4.70767034 7.59274755 -5.8125 8.5625 C-6.35970703 9.05685547 -6.90691406 9.55121094 -7.47070312 10.06054688 C-9.8968145 12.23375452 -12.2860722 14.1907148 -15 16 C-14.45666461 12.02459608 -12.56530421 10.19220992 -9.75 7.4375 C-8.59757813 6.29087891 -8.59757813 6.29087891 -7.421875 5.12109375 C-5.06824025 3.05976525 -2.72984574 1.51496758 0 0 Z " fill="#0846A3" transform="translate(607,355)"/>
<path d="M0 0 C0.66 0 1.32 0 2 0 C2.55429687 1.12019531 3.10859375 2.24039062 3.6796875 3.39453125 C4.41135191 4.86724038 5.14312861 6.33989372 5.875 7.8125 C6.23980469 8.55048828 6.60460937 9.28847656 6.98046875 10.04882812 C7.33496094 10.76103516 7.68945312 11.47324219 8.0546875 12.20703125 C8.37937012 12.8616333 8.70405273 13.51623535 9.03857422 14.19067383 C10.09255672 16.24652798 10.09255672 16.24652798 12 19 C12 19.99 12 20.98 12 22 C11.34 22 10.68 22 10 22 C8.32326863 18.90116855 6.6603866 15.79511545 5 12.6875 C4.52304687 11.80642578 4.04609375 10.92535156 3.5546875 10.01757812 C3.10351562 9.17001953 2.65234375 8.32246094 2.1875 7.44921875 C1.76855469 6.66893311 1.34960938 5.88864746 0.91796875 5.0847168 C0 3 0 3 0 0 Z " fill="#033B9C" transform="translate(448,277)"/>
<path d="M0 0 C0.66 0.33 1.32 0.66 2 1 C0.61076093 3.06721195 -0.78602884 5.12860338 -2.1875 7.1875 C-2.57486328 7.76564453 -2.96222656 8.34378906 -3.36132812 8.93945312 C-5.93841007 12.70923416 -8.67676054 15.86564804 -12 19 C-11.40295682 16.0322249 -10.52860031 14.0237371 -8.75 11.58203125 C-8.3065625 10.96779297 -7.863125 10.35355469 -7.40625 9.72070312 C-6.9421875 9.09099609 -6.478125 8.46128906 -6 7.8125 C-5.5359375 7.17119141 -5.071875 6.52988281 -4.59375 5.86914062 C-1.20583977 1.20583977 -1.20583977 1.20583977 0 0 Z " fill="#0641A1" transform="translate(397,366)"/>
<path d="M0 0 C0.66 0 1.32 0 2 0 C0.7079635 4.33024115 -0.9440086 7.88177765 -3.375 11.6875 C-3.96023438 12.61949219 -4.54546875 13.55148437 -5.1484375 14.51171875 C-6.92067809 16.89340073 -8.53654521 18.37759255 -11 20 C-10.3781072 16.35268276 -8.80552542 14.07836987 -6.625 11.125 C-4.02118045 7.51066321 -1.81655396 4.06053238 0 0 Z " fill="#063D98" transform="translate(692,431)"/>
<path d="M0 0 C0 0.33 0 0.66 0 1 C-6.27 1 -12.54 1 -19 1 C-19.33 0.34 -19.66 -0.32 -20 -1 C-13.2463067 -3.2512311 -6.67978485 -1.94321014 0 0 Z " fill="#043EA0" transform="translate(648,322)"/>
<path d="M0 0 C2.32495277 0.38749213 4.65851268 0.72982839 7 1 C7 1.33 7 1.66 7 2 C-2.13338455 2.28994872 -10.96301675 1.1741788 -20 0 C-20 -0.33 -20 -0.66 -20 -1 C-17.41718164 -1.22224251 -14.83477813 -1.42823488 -12.25 -1.625 C-11.52039063 -1.68945312 -10.79078125 -1.75390625 -10.0390625 -1.8203125 C-6.04523297 -2.11077283 -3.42338089 -2.11627182 0 0 Z " fill="#04399C" transform="translate(453,250)"/>
<path d="M0 0 C-2.72039409 2.72039409 -5.06490287 2.84801128 -8.8125 3.625 C-10.64748047 4.01558594 -10.64748047 4.01558594 -12.51953125 4.4140625 C-15.4477228 4.90702404 -18.04514312 5.12382257 -21 5 C-20.67 4.34 -20.34 3.68 -20 3 C-13.47739598 0.93923525 -6.84558208 -0.47759875 0 0 Z " fill="#053FA0" transform="translate(529,285)"/>
<path d="M0 0 C0.4846875 0.44472656 0.969375 0.88945313 1.46875 1.34765625 C5.369931 4.73731107 5.369931 4.73731107 10.171875 6.28125 C14.16603364 5.86081225 17.10279744 4.77648579 20 2 C18.96384094 5.33873474 17.89446549 6.06207912 14.8125 7.875 C10.25210295 9.22069093 8.30315018 8.94859631 4 7 C0 2.8974359 0 2.8974359 0 0 Z " fill="#0A86C9" transform="translate(502,753)"/>
<path d="M0 0 C2.0625 0.4375 2.0625 0.4375 4 1 C1.39939496 2.34070318 -1.20504916 3.67273354 -3.8125 5 C-4.55048828 5.3815625 -5.28847656 5.763125 -6.04882812 6.15625 C-6.76103516 6.5171875 -7.47324219 6.878125 -8.20703125 7.25 C-9.18893433 7.75273437 -9.18893433 7.75273437 -10.19067383 8.265625 C-12 9 -12 9 -15 9 C-15 8.34 -15 7.68 -15 7 C-14.00097656 6.57847656 -13.00195312 6.15695312 -11.97265625 5.72265625 C-10.66921692 5.16939783 -9.36583443 4.61600549 -8.0625 4.0625 C-7.0734668 3.64581055 -7.0734668 3.64581055 -6.06445312 3.22070312 C-2.79531504 1.99207117 -2.79531504 1.99207117 0 0 Z " fill="#053D9B" transform="translate(435,500)"/>
<path d="M0 0 C0.66 0 1.32 0 2 0 C0.21470545 6.76532673 -2.49937851 11.65460165 -7 17 C-8 14 -8 14 -6.85546875 11.66015625 C-6.02982422 10.37431641 -6.02982422 10.37431641 -5.1875 9.0625 C-3.30152554 6.09242621 -1.51210472 3.17910796 0 0 Z " fill="#063C99" transform="translate(441,431)"/>
<path d="M0 0 C3.26309597 2.72931793 4.90051326 6.32166572 6.75 10.0625 C7.07871094 10.69994141 7.40742188 11.33738281 7.74609375 11.99414062 C8.56378581 13.63124982 9.28949826 15.31360322 10 17 C9.67 17.66 9.34 18.32 9 19 C7.31647087 16.34361182 5.65373929 13.6750287 4 11 C3.59652344 10.35675781 3.19304687 9.71351563 2.77734375 9.05078125 C0.72523974 5.66002875 0 4.07014883 0 0 Z " fill="#053995" transform="translate(427,290)"/>
<path d="M0 0 C3.29597643 0.29963422 5.50718398 0.65776665 8.25 2.5625 C10.66672311 5.92865005 11.18917798 8.94588988 12 13 C11.34 13 10.68 13 10 13 C9.78085937 12.45730469 9.56171875 11.91460937 9.3359375 11.35546875 C7.55552142 7.33867638 6.5983784 5.36823286 2.75 3 C1.8425 2.67 0.935 2.34 0 2 C0 1.34 0 0.68 0 0 Z " fill="#073F9D" transform="translate(589,223)"/>
<path d="M0 0 C6.68993219 0.53951066 12.63460728 1.88706171 19 4 C19 4.33 19 4.66 19 5 C12.50149789 4.48446121 6.33773468 3.53332291 0 2 C0 1.34 0 0.68 0 0 Z " fill="#07409D" transform="translate(562,581)"/>
<path d="M0 0 C2.61724095 2.36797991 4.32861729 4.89600354 6 8 C6 8.66 6 9.32 6 10 C6.99 10.33 7.98 10.66 9 11 C8.34 12.32 7.68 13.64 7 15 C6.66226562 14.45730469 6.32453125 13.91460937 5.9765625 13.35546875 C5.53054688 12.64003906 5.08453125 11.92460937 4.625 11.1875 C4.18414062 10.47980469 3.74328125 9.77210938 3.2890625 9.04296875 C2.21811524 7.34567961 1.11323761 5.66985642 0 4 C0 2.68 0 1.36 0 0 Z " fill="#053D9B" transform="translate(469,376)"/>
<path d="M0 0 C4.00735217 0.60110283 6.55469371 2.66602028 9.75 5.0625 C10.73484375 5.79597656 11.7196875 6.52945312 12.734375 7.28515625 C13.48203125 7.85105469 14.2296875 8.41695313 15 9 C14.01 9.495 14.01 9.495 13 10 C8.09675696 7.54837848 4.06436408 4.66784075 0 1 C0 0.67 0 0.34 0 0 Z " fill="#053D9F" transform="translate(597,452)"/>
<path d="M0 0 C0.33 0 0.66 0 1 0 C2.10128201 6.05705103 2.08079308 11.13484056 0 17 C-0.66 17.66 -1.32 18.32 -2 19 C-1.37802877 12.66118686 -0.71457113 6.32905858 0 0 Z " fill="#0843A1" transform="translate(696,411)"/>
<path d="M0 0 C3.40858586 3.40858586 3.93008394 8.32201465 4.125 13 C4.08375 13.66 4.0425 14.32 4 15 C2 14 2 14 0.875 10.875 C0.02244801 7.09941262 -0.15729024 3.85361088 0 0 Z " fill="#08338C" transform="translate(301,451)"/>
<path d="M0 0 C0.74886475 0.00523682 1.49772949 0.01047363 2.26928711 0.01586914 C3.07817383 0.0190918 3.88706055 0.02231445 4.72045898 0.02563477 C5.5705957 0.03401367 6.42073242 0.04239258 7.29663086 0.05102539 C8.15063477 0.05553711 9.00463867 0.06004883 9.88452148 0.06469727 C12.00108749 0.07652166 14.11761771 0.0944577 16.23413086 0.11352539 C16.23413086 0.44352539 16.23413086 0.77352539 16.23413086 1.11352539 C10.95413086 1.11352539 5.67413086 1.11352539 0.23413086 1.11352539 C-0.42586914 2.43352539 -1.08586914 3.75352539 -1.76586914 5.11352539 C-2.32836914 3.17602539 -2.32836914 3.17602539 -2.76586914 1.11352539 C-1.76586914 0.11352539 -1.76586914 0.11352539 0 0 Z " fill="#073897" transform="translate(487.765869140625,441.886474609375)"/>
<path d="M0 0 C10.55808656 0.77904328 10.55808656 0.77904328 15 3 C11.46905698 4.20220203 8.87101018 3.79532349 5.25 3.0625 C4.26515625 2.86785156 3.2803125 2.67320312 2.265625 2.47265625 C1.51796875 2.31667969 0.7703125 2.16070312 0 2 C0 1.34 0 0.68 0 0 Z " fill="#0640A3" transform="translate(400,321)"/>
<path d="M0 0 C0.66 0.66 1.32 1.32 2 2 C-0.31 4.97 -2.62 7.94 -5 11 C-5.99 10.67 -6.98 10.34 -8 10 C-5.36 6.7 -2.72 3.4 0 0 Z " fill="#06419F" transform="translate(525,359)"/>
<path d="M0 0 C2.97 0 5.94 0 9 0 C11 4 11 4 10.625 6.25 C10.41875 6.8275 10.2125 7.405 10 8 C9.46375 7.030625 8.9275 6.06125 8.375 5.0625 C6.27994174 1.72464389 6.27994174 1.72464389 2.75 1.125 C1.8425 1.08375 0.935 1.0425 0 1 C0 0.67 0 0.34 0 0 Z " fill="#0444A3" transform="translate(416,284)"/>
<path d="M0 0 C0 0.66 0 1.32 0 2 C-1.40751221 2.86916887 -2.8264521 3.71985149 -4.25 4.5625 C-5.03890625 5.03816406 -5.8278125 5.51382813 -6.640625 6.00390625 C-9.30844625 7.13022151 -10.34501768 7.0169313 -13 6 C-11.21118264 4.99491199 -9.41885304 3.99607264 -7.625 3 C-6.62726563 2.443125 -5.62953125 1.88625 -4.6015625 1.3125 C-2 0 -2 0 0 0 Z " fill="#0A419C" transform="translate(406,602)"/>
<path d="M0 0 C0.66 0 1.32 0 2 0 C2.66 0.99 3.32 1.98 4 3 C4.99 2.34 5.98 1.68 7 1 C7 1.99 7 2.98 7 4 C5 5.6875 5 5.6875 3 7 C0 3.375 0 3.375 0 0 Z " fill="#0545A5" transform="translate(501,382)"/>
<path d="M0 0 C0.99 0.33 1.98 0.66 3 1 C0.36 4.3 -2.28 7.6 -5 11 C-5.33 10.01 -5.66 9.02 -6 8 C-4.78515625 5.95703125 -4.78515625 5.95703125 -3.0625 3.8125 C-2.49660156 3.09707031 -1.93070312 2.38164062 -1.34765625 1.64453125 C-0.90292969 1.10183594 -0.45820313 0.55914062 0 0 Z " fill="#053B9A" transform="translate(434,312)"/>
<path d="M0 0 C0.99 0.33 1.98 0.66 3 1 C-0.3 3.64 -3.6 6.28 -7 9 C-7 6 -7 6 -5.57421875 4.359375 C-4.95160156 3.82828125 -4.32898438 3.2971875 -3.6875 2.75 C-3.07261719 2.20859375 -2.45773437 1.6671875 -1.82421875 1.109375 C-1.22222656 0.74328125 -0.62023437 0.3771875 0 0 Z " fill="#073591" transform="translate(336,338)"/>
<path d="M0 0 C2.18840439 3.28260659 4.15885893 6.50818073 6 10 C5.67 10.66 5.34 11.32 5 12 C2.32544817 10.66272409 2.01118615 9.26711677 0.8125 6.5625 C0.44769531 5.75941406 0.08289063 4.95632813 -0.29296875 4.12890625 C-1 2 -1 2 0 0 Z " fill="#0644A3" transform="translate(481,341)"/>
<path d="M0 0 C0 0.66 0 1.32 0 2 C-3.9813783 3.3271261 -7.85045227 3.06915913 -12 3 C-7.86112344 0.24074896 -4.92824278 -0.13689563 0 0 Z " fill="#053E9C" transform="translate(507,315)"/>
<path d="M0 0 C0.33 0.66 0.66 1.32 1 2 C-1.31 4.97 -3.62 7.94 -6 11 C-6.33 10.34 -6.66 9.68 -7 9 C-4.69 6.03 -2.38 3.06 0 0 Z " fill="#043896" transform="translate(591,314)"/>
<path d="M0 0 C0.33 0.99 0.66 1.98 1 3 C-0.21484375 4.82421875 -0.21484375 4.82421875 -1.9375 6.6875 C-2.50339844 7.31011719 -3.06929687 7.93273437 -3.65234375 8.57421875 C-4.09707031 9.04472656 -4.54179688 9.51523437 -5 10 C-5.66 9.67 -6.32 9.34 -7 9 C-4.69 6.03 -2.38 3.06 0 0 Z " fill="#083793" transform="translate(653,584)"/>
<path d="M0 0 C0.33 0.99 0.66 1.98 1 3 C-0.40445835 5.2636564 -2.1967913 7.0208685 -4 9 C-4.66 8.67 -5.32 8.34 -6 8 C-4.02 5.36 -2.04 2.72 0 0 Z " fill="#063894" transform="translate(525,401)"/>
<path d="M0 0 C0.66 0 1.32 0 2 0 C2.66 2.97 3.32 5.94 4 9 C3.34 9 2.68 9 2 9 C0.50178941 5.62902617 0 3.79557881 0 0 Z " fill="#07409D" transform="translate(647,384)"/>
<path d="M0 0 C0.66 0.33 1.32 0.66 2 1 C-0.97 4.96 -0.97 4.96 -4 9 C-4.33 8.01 -4.66 7.02 -5 6 C-3.59554165 3.7363436 -1.8032087 1.9791315 0 0 Z " fill="#053897" transform="translate(390,376)"/>
<path d="M0 0 C0.66 0.33 1.32 0.66 2 1 C-0.3125 3.5 -0.3125 3.5 -3 6 C-3.99 6 -4.98 6 -6 6 C-4 4 -2 2 0 0 Z " fill="#0546A8" transform="translate(590,334)"/>
<path d="M0 0 C3.40424844 1.13474948 4.21653709 1.96811304 6 5 C5.67 5.99 5.34 6.98 5 8 C0 2.25 0 2.25 0 0 Z " fill="#043A9A" transform="translate(387,504)"/>
<path d="M0 0 C0.99 0.33 1.98 0.66 3 1 C0.03 3.475 0.03 3.475 -3 6 C-3.66 5.67 -4.32 5.34 -5 5 C-3.35 3.35 -1.7 1.7 0 0 Z " fill="#063D9D" transform="translate(677,452)"/>
<path d="M0 0 C0 0.99 0 1.98 0 3 C-1.8125 4.75 -1.8125 4.75 -4 6 C-4.99 5.67 -5.98 5.34 -7 5 C-4.69 3.35 -2.38 1.7 0 0 Z " fill="#033C9D" transform="translate(607,355)"/>
<path d="M0 0 C-2.97 0.66 -5.94 1.32 -9 2 C-9 1.34 -9 0.68 -9 0 C-4.5 -2.25 -4.5 -2.25 0 0 Z " fill="#054DAD" transform="translate(480,323)"/>
<path d="M0 0 C0.99 0.33 1.98 0.66 3 1 C2.071875 1.3403125 2.071875 1.3403125 1.125 1.6875 C-1.61410209 3.37929835 -2.05024472 4.99244161 -3 8 C-3.75 6.25 -3.75 6.25 -4 4 C-2.0625 1.75 -2.0625 1.75 0 0 Z " fill="#073691" transform="translate(535,224)"/>
<path d="M0 0 C0.66 0 1.32 0 2 0 C3.2890625 1.53125 3.2890625 1.53125 4.625 3.5 C5.07101562 4.1496875 5.51703125 4.799375 5.9765625 5.46875 C6.31429688 5.9740625 6.65203125 6.479375 7 7 C3.21875 6.2421875 3.21875 6.2421875 1.25 4.0625 C0 2 0 2 0 0 Z " fill="#073D97" transform="translate(385,601)"/>
<path d="M0 0 C0.66 0 1.32 0 2 0 C1.38722388 2.96175123 0.74627478 4.38058783 -1 7 C-1.99 6.67 -2.98 6.34 -4 6 C-2.7260411 3.96166576 -1.38938077 1.96147874 0 0 Z " fill="#0347A9" transform="translate(408,349)"/>
<path d="M0 0 C-0.99 1.485 -0.99 1.485 -2 3 C-4.31 2.67 -6.62 2.34 -9 2 C-9 1.67 -9 1.34 -9 1 C-2.25 -1.125 -2.25 -1.125 0 0 Z " fill="#053C9D" transform="translate(428,325)"/>
<path d="M0 0 C-3.6441774 2.4294516 -5.71241272 2.16179575 -10 2 C-6.80505194 -1.19494806 -4.22040044 -1.35655728 0 0 Z " fill="#033A9B" transform="translate(570,301)"/>
<path d="M0 0 C0.33 0.66 0.66 1.32 1 2 C0.01 2.33 -0.98 2.66 -2 3 C-2 2.34 -2 1.68 -2 1 C-1.34 0.67 -0.68 0.34 0 0 Z " fill="#0863C4" transform="translate(578,263)"/>
<path d="M0 0 C4 1 4 1 4 1 Z " fill="#0762C0" transform="translate(630,464)"/>
<path d="M0 0 C4 1 4 1 4 1 Z " fill="#065FC2" transform="translate(531,440)"/>
<path d="M0 0 C0.66 0 1.32 0 2 0 C2 0.66 2 1.32 2 2 C1.34 2 0.68 2 0 2 C0 1.34 0 0.68 0 0 Z " fill="#0662C6" transform="translate(396,350)"/>
<path d="M0 0 C0.66 0.66 1.32 1.32 2 2 C1.34 2 0.68 2 0 2 C0 1.34 0 0.68 0 0 Z " fill="#0FABE6" transform="translate(481,730)"/>
<path d="M0 0 C0.66 0 1.32 0 2 0 C1.67 0.66 1.34 1.32 1 2 C0.67 1.34 0.34 0.68 0 0 Z " fill="#159ADB" transform="translate(401,627)"/>
<path d="M0 0 C3 1 3 1 3 1 Z " fill="#0E5AB6" transform="translate(312,498)"/>
<path d="M0 0 C0.33 0.66 0.66 1.32 1 2 C0.34 1.67 -0.32 1.34 -1 1 C-0.67 0.67 -0.34 0.34 0 0 Z " fill="#0A61C2" transform="translate(433,308)"/>
<path d="" fill="#10AEEA" transform="translate(0,0)"/>
<path d="M0 0 C2 1 2 1 2 1 Z " fill="#1695D6" transform="translate(401,624)"/>
<path d="M0 0 C2 1 2 1 2 1 Z " fill="#0CA3EA" transform="translate(500,593)"/>
<path d="M0 0 C2 1 2 1 2 1 Z " fill="#1179CF" transform="translate(541,580)"/>
<path d="M0 0 C2 1 2 1 2 1 Z " fill="#117ED1" transform="translate(538,580)"/>
<path d="M0 0 C2 1 2 1 2 1 Z " fill="#0D5DB8" transform="translate(346,555)"/>
<path d="M0 0 C2 1 2 1 2 1 Z " fill="#0A65C4" transform="translate(601,504)"/>
<path d="" fill="#0C5AB8" transform="translate(0,0)"/>
<path d="" fill="#0963C5" transform="translate(0,0)"/>
<path d="M0 0 C2 1 2 1 2 1 Z " fill="#0765C5" transform="translate(641,464)"/>
<path d="M0 0 C2 1 2 1 2 1 Z " fill="#085FBF" transform="translate(381,464)"/>
<path d="" fill="#0E5DB9" transform="translate(0,0)"/>
<path d="" fill="#0F5DBA" transform="translate(0,0)"/>
<path d="" fill="#0E5DB7" transform="translate(0,0)"/>
<path d="M0 0 C2 1 2 1 2 1 Z " fill="#0762C1" transform="translate(521,440)"/>
<path d="M0 0 C2 1 2 1 2 1 Z " fill="#075FBF" transform="translate(512,440)"/>
<path d="M0 0 C2 1 2 1 2 1 Z " fill="#0565C4" transform="translate(499,440)"/>
<path d="" fill="#0A63C5" transform="translate(0,0)"/>
<path d="M0 0 C2 1 2 1 2 1 Z " fill="#0961C1" transform="translate(634,421)"/>
<path d="" fill="#0962C6" transform="translate(0,0)"/>
<path d="" fill="#0863C7" transform="translate(0,0)"/>
<path d="M0 0 C2 1 2 1 2 1 Z " fill="#0463C5" transform="translate(457,360)"/>
<path d="" fill="#1059B3" transform="translate(0,0)"/>
<path d="M0 0 C2 1 2 1 2 1 Z " fill="#075CC1" transform="translate(644,350)"/>
<path d="M0 0 C2 1 2 1 2 1 Z " fill="#0862C7" transform="translate(388,350)"/>
<path d="M0 0 C2 1 2 1 2 1 Z " fill="#0862C5" transform="translate(500,319)"/>
<path d="M0 0 C2 1 2 1 2 1 Z " fill="#0B61C4" transform="translate(420,287)"/>
<path d="M0 0 C2 1 2 1 2 1 Z " fill="#0A65C2" transform="translate(537,280)"/>
<path d="M0 0 C2 1 2 1 2 1 Z " fill="#095BB6" transform="translate(453,248)"/>
<path d="M0 0 C2 1 2 1 2 1 Z " fill="#0C55AC" transform="translate(596,224)"/>
<path d="" fill="#0CACE7" transform="translate(0,0)"/>
<path d="" fill="#0BACE6" transform="translate(0,0)"/>
<path d="" fill="#0BADE8" transform="translate(0,0)"/>
<path d="" fill="#0DAAE7" transform="translate(0,0)"/>
<path d="" fill="#0DABE9" transform="translate(0,0)"/>
<path d="" fill="#0EACE8" transform="translate(0,0)"/>
<path d="" fill="#0CACE9" transform="translate(0,0)"/>
<path d="" fill="#0EADE7" transform="translate(0,0)"/>
<path d="" fill="#0FADE8" transform="translate(0,0)"/>
<path d="" fill="#0AABE7" transform="translate(0,0)"/>
<path d="" fill="#0CABE9" transform="translate(0,0)"/>
<path d="" fill="#0AAFEA" transform="translate(0,0)"/>
<path d="" fill="#0EAFEC" transform="translate(0,0)"/>
<path d="" fill="#0FA7E6" transform="translate(0,0)"/>
<path d="" fill="#10ABE9" transform="translate(0,0)"/>
<path d="" fill="#0CAFEB" transform="translate(0,0)"/>
<path d="" fill="#10AAE9" transform="translate(0,0)"/>
<path d="" fill="#11A9E9" transform="translate(0,0)"/>
<path d="" fill="#149FE1" transform="translate(0,0)"/>
<path d="" fill="#1694D5" transform="translate(0,0)"/>
<path d="" fill="#1399E4" transform="translate(0,0)"/>
<path d="" fill="#149BE2" transform="translate(0,0)"/>
<path d="" fill="#0E9DE6" transform="translate(0,0)"/>
<path d="" fill="#0CA2E9" transform="translate(0,0)"/>
<path d="" fill="#0DA3E9" transform="translate(0,0)"/>
<path d="" fill="#0D9FE8" transform="translate(0,0)"/>
<path d="" fill="#1481D5" transform="translate(0,0)"/>
<path d="" fill="#1178CE" transform="translate(0,0)"/>
<path d="" fill="#109DE6" transform="translate(0,0)"/>
<path d="" fill="#1264BE" transform="translate(0,0)"/>
<path d="" fill="#0BA2EB" transform="translate(0,0)"/>
<path d="" fill="#0DA0E8" transform="translate(0,0)"/>
<path d="" fill="#137DD7" transform="translate(0,0)"/>
<path d="" fill="#1061BD" transform="translate(0,0)"/>
<path d="" fill="#1483D7" transform="translate(0,0)"/>
<path d="" fill="#1082D8" transform="translate(0,0)"/>
<path d="" fill="#0F74CF" transform="translate(0,0)"/>
<path d="" fill="#1382D6" transform="translate(0,0)"/>
<path d="" fill="#1072CC" transform="translate(0,0)"/>
<path d="" fill="#117CD3" transform="translate(0,0)"/>
<path d="" fill="#1382D6" transform="translate(0,0)"/>
<path d="" fill="#137AD4" transform="translate(0,0)"/>
<path d="" fill="#127DD2" transform="translate(0,0)"/>
<path d="" fill="#0C59B3" transform="translate(0,0)"/>
<path d="" fill="#0B5CB9" transform="translate(0,0)"/>
<path d="" fill="#105BB9" transform="translate(0,0)"/>
<path d="" fill="#0B5ABA" transform="translate(0,0)"/>
<path d="" fill="#0F5EBB" transform="translate(0,0)"/>
<path d="" fill="#0E5AB7" transform="translate(0,0)"/>
<path d="" fill="#0B5AB7" transform="translate(0,0)"/>
<path d="" fill="#0963C6" transform="translate(0,0)"/>
<path d="" fill="#0962C2" transform="translate(0,0)"/>
<path d="" fill="#0766C5" transform="translate(0,0)"/>
<path d="" fill="#0D5DB7" transform="translate(0,0)"/>
<path d="" fill="#065FC1" transform="translate(0,0)"/>
<path d="" fill="#0863C1" transform="translate(0,0)"/>
<path d="" fill="#0863C6" transform="translate(0,0)"/>
<path d="" fill="#0763C5" transform="translate(0,0)"/>
<path d="" fill="#0964C4" transform="translate(0,0)"/>
<path d="" fill="#0A61C5" transform="translate(0,0)"/>
<path d="" fill="#0A64C8" transform="translate(0,0)"/>
<path d="" fill="#0F5BB3" transform="translate(0,0)"/>
<path d="" fill="#0862C2" transform="translate(0,0)"/>
<path d="" fill="#0B62C3" transform="translate(0,0)"/>
<path d="" fill="#105CB4" transform="translate(0,0)"/>
<path d="" fill="#0864C6" transform="translate(0,0)"/>
<path d="" fill="#0863C4" transform="translate(0,0)"/>
<path d="" fill="#0B61C3" transform="translate(0,0)"/>
<path d="" fill="#0A61C2" transform="translate(0,0)"/>
<path d="" fill="#0A62C6" transform="translate(0,0)"/>
<path d="" fill="#0F5DB6" transform="translate(0,0)"/>
<path d="" fill="#0A61BE" transform="translate(0,0)"/>
<path d="" fill="#0768C8" transform="translate(0,0)"/>
<path d="" fill="#0861BE" transform="translate(0,0)"/>
<path d="" fill="#0963C2" transform="translate(0,0)"/>
<path d="" fill="#0B5AB6" transform="translate(0,0)"/>
<path d="" fill="#0965C3" transform="translate(0,0)"/>
<path d="" fill="#035DC4" transform="translate(0,0)"/>
<path d="" fill="#075FC1" transform="translate(0,0)"/>
<path d="" fill="#0A61C1" transform="translate(0,0)"/>
<path d="" fill="#0F5CB6" transform="translate(0,0)"/>
<path d="" fill="#0964C3" transform="translate(0,0)"/>
<path d="" fill="#0963C2" transform="translate(0,0)"/>
<path d="" fill="#0861C2" transform="translate(0,0)"/>
<path d="" fill="#075EBD" transform="translate(0,0)"/>
<path d="" fill="#075EBC" transform="translate(0,0)"/>
<path d="" fill="#0562C0" transform="translate(0,0)"/>
<path d="" fill="#0864C3" transform="translate(0,0)"/>
<path d="" fill="#0963C5" transform="translate(0,0)"/>
<path d="" fill="#0664C2" transform="translate(0,0)"/>
<path d="" fill="#0763C4" transform="translate(0,0)"/>
<path d="" fill="#075DBE" transform="translate(0,0)"/>
<path d="" fill="#0760C1" transform="translate(0,0)"/>
<path d="" fill="#0A66C8" transform="translate(0,0)"/>
<path d="" fill="#0860C1" transform="translate(0,0)"/>
<path d="" fill="#0865C6" transform="translate(0,0)"/>
<path d="" fill="#0865CB" transform="translate(0,0)"/>
<path d="" fill="#0864C6" transform="translate(0,0)"/>
<path d="" fill="#0762C8" transform="translate(0,0)"/>
<path d="" fill="#0965C9" transform="translate(0,0)"/>
<path d="" fill="#0A61C0" transform="translate(0,0)"/>
<path d="" fill="#0962C5" transform="translate(0,0)"/>
<path d="" fill="#0C61C4" transform="translate(0,0)"/>
<path d="" fill="#0962BF" transform="translate(0,0)"/>
<path d="" fill="#105EBB" transform="translate(0,0)"/>
<path d="" fill="#0C63C3" transform="translate(0,0)"/>
<path d="" fill="#0960C0" transform="translate(0,0)"/>
<path d="" fill="#0A5FBF" transform="translate(0,0)"/>
<path d="" fill="#0B63C5" transform="translate(0,0)"/>
<path d="" fill="#0962C4" transform="translate(0,0)"/>
<path d="" fill="#0960C2" transform="translate(0,0)"/>
<path d="" fill="#0D58B7" transform="translate(0,0)"/>
<path d="" fill="#095FC1" transform="translate(0,0)"/>
<path d="" fill="#0966C4" transform="translate(0,0)"/>
<path d="" fill="#055FBD" transform="translate(0,0)"/>
<path d="" fill="#0763C6" transform="translate(0,0)"/>
<path d="" fill="#0B60C3" transform="translate(0,0)"/>
<path d="" fill="#0B66C9" transform="translate(0,0)"/>
<path d="" fill="#0B5CB7" transform="translate(0,0)"/>
<path d="" fill="#0761C3" transform="translate(0,0)"/>
<path d="" fill="#0A62C4" transform="translate(0,0)"/>
<path d="" fill="#0D5DB7" transform="translate(0,0)"/>
<path d="" fill="#0E5FB7" transform="translate(0,0)"/>
<path d="" fill="#0661C7" transform="translate(0,0)"/>
<path d="" fill="#0E5DB9" transform="translate(0,0)"/>
<path d="" fill="#0761C4" transform="translate(0,0)"/>
<path d="" fill="#0963C2" transform="translate(0,0)"/>
<path d="" fill="#0A64C2" transform="translate(0,0)"/>
<path d="" fill="#0761C2" transform="translate(0,0)"/>
<path d="" fill="#135BB0" transform="translate(0,0)"/>
<path d="" fill="#115BB2" transform="translate(0,0)"/>
<path d="" fill="#0A64C3" transform="translate(0,0)"/>
<path d="" fill="#0C66C9" transform="translate(0,0)"/>
<path d="" fill="#0861C2" transform="translate(0,0)"/>
<path d="" fill="#0861C3" transform="translate(0,0)"/>
<path d="" fill="#145BB5" transform="translate(0,0)"/>
<path d="" fill="#135DB3" transform="translate(0,0)"/>
<path d="" fill="#0A64C8" transform="translate(0,0)"/>
<path d="" fill="#085FC2" transform="translate(0,0)"/>
<path d="" fill="#0562C5" transform="translate(0,0)"/>
<path d="" fill="#0565C7" transform="translate(0,0)"/>
<path d="" fill="#0765CA" transform="translate(0,0)"/>
<path d="" fill="#0661C7" transform="translate(0,0)"/>
<path d="" fill="#0963C1" transform="translate(0,0)"/>
<path d="" fill="#055EC4" transform="translate(0,0)"/>
<path d="" fill="#0665C3" transform="translate(0,0)"/>
<path d="" fill="#0C5FB9" transform="translate(0,0)"/>
<path d="" fill="#0F5BB5" transform="translate(0,0)"/>
<path d="" fill="#0760C3" transform="translate(0,0)"/>
<path d="" fill="#0F58B6" transform="translate(0,0)"/>
<path d="" fill="#0961C0" transform="translate(0,0)"/>
<path d="" fill="#065FC1" transform="translate(0,0)"/>
<path d="" fill="#0A59B9" transform="translate(0,0)"/>
<path d="" fill="#075EC0" transform="translate(0,0)"/>
<path d="" fill="#0864C2" transform="translate(0,0)"/>
<path d="" fill="#0E5DBA" transform="translate(0,0)"/>
<path d="" fill="#0D61C0" transform="translate(0,0)"/>
<path d="" fill="#0962C2" transform="translate(0,0)"/>
<path d="" fill="#0A5FBE" transform="translate(0,0)"/>
<path d="" fill="#0C62BE" transform="translate(0,0)"/>
<path d="" fill="#0765C8" transform="translate(0,0)"/>
<path d="" fill="#0765C6" transform="translate(0,0)"/>
<path d="" fill="#0862C3" transform="translate(0,0)"/>
<path d="" fill="#0B61C0" transform="translate(0,0)"/>
<path d="" fill="#0762C5" transform="translate(0,0)"/>
<path d="" fill="#0B64C5" transform="translate(0,0)"/>
<path d="" fill="#0664C6" transform="translate(0,0)"/>
<path d="" fill="#095FC0" transform="translate(0,0)"/>
<path d="" fill="#095FC3" transform="translate(0,0)"/>
<path d="" fill="#0962C3" transform="translate(0,0)"/>
<path d="" fill="#105AB7" transform="translate(0,0)"/>
<path d="" fill="#0A62C2" transform="translate(0,0)"/>
<path d="" fill="#0961C4" transform="translate(0,0)"/>
<path d="" fill="#0863C5" transform="translate(0,0)"/>
<path d="" fill="#0764C6" transform="translate(0,0)"/>
<path d="" fill="#0D61C0" transform="translate(0,0)"/>
<path d="" fill="#0F5CB7" transform="translate(0,0)"/>
<path d="" fill="#1158B0" transform="translate(0,0)"/>
<path d="" fill="#1259AE" transform="translate(0,0)"/>
<path d="" fill="#0D5DBA" transform="translate(0,0)"/>
<path d="" fill="#0A60BC" transform="translate(0,0)"/>
<path d="" fill="#0C56B0" transform="translate(0,0)"/>
<path d="" fill="#0B56AE" transform="translate(0,0)"/>
</svg>
